<svg width="178" height="48" viewBox="0 0 178 48" fill="none" xmlns="http://www.w3.org/2000/svg">
<path fill-rule="evenodd" clip-rule="evenodd" d="M15.4515 30.4271C16.2451 30.8473 17.1498 31.0279 18.0498 30.9456C18.9499 30.8634 19.804 30.522 20.5027 29.9654C21.2014 29.4088 21.7128 28.6623 21.9712 27.8217C22.2297 26.9811 22.2234 26.0847 21.9532 25.2476C21.6108 24.1801 21.4888 23.0576 21.5943 21.9443C21.6997 20.831 22.0306 19.7489 22.5679 18.7599C23.1052 17.771 23.8384 16.8947 24.7253 16.1812C25.6123 15.4678 26.6357 14.9313 27.7368 14.6024C28.5908 14.3428 29.3465 13.8439 29.9089 13.1685C30.4714 12.4931 30.8154 11.6714 30.8977 10.8066C30.98 9.94191 30.7969 9.07287 30.3714 8.30895C29.946 7.54498 29.2971 6.92019 28.5066 6.51325C27.7161 6.1063 26.8192 5.93531 25.9289 6.02188C25.0384 6.1084 24.1943 6.44856 23.5026 6.9996C22.8109 7.55058 22.3027 8.28782 22.0418 9.11848C21.7809 9.94913 21.779 10.8361 22.0364 11.6678C22.712 13.8149 22.4835 16.1344 21.4011 18.1185C20.3185 20.1025 18.4702 21.5896 16.2605 22.2543C15.3881 22.4998 14.6118 22.9937 14.032 23.6721C13.4522 24.3506 13.0957 25.1823 13.0085 26.0596C12.9214 26.937 13.1077 27.8195 13.5432 28.5929C13.9788 29.3664 14.6436 29.9951 15.4515 30.3977V30.4271ZM43.341 35.3132C43.0203 34.8178 42.6011 34.3894 42.1078 34.0531C41.6145 33.7168 41.0571 33.4793 40.4681 33.3544C38.2148 32.8458 36.2605 31.4923 35.0322 29.5898C33.8041 27.6872 33.4019 25.3902 33.9135 23.2008C34.1102 22.3545 34.0449 21.4708 33.7257 20.6604C33.4065 19.8501 32.8477 19.1494 32.1195 18.6463C31.3912 18.1431 30.526 17.8601 29.6324 17.8325C28.739 17.805 27.857 18.0343 27.0974 18.4916C26.3377 18.9489 25.7343 19.6138 25.3627 20.4029C24.9913 21.192 24.8683 22.0699 25.0093 22.9265C25.1503 23.7832 25.5491 24.5803 26.1554 25.2178C26.7617 25.8552 27.5486 26.3046 28.4173 26.5095C29.5411 26.7555 30.6038 27.2143 31.5445 27.8596C32.4852 28.5049 33.2854 29.324 33.8992 30.27C34.5131 31.216 34.9285 32.2703 35.1216 33.3724C35.3148 34.4744 35.2819 35.6027 35.0249 36.6925C34.8727 37.395 34.8998 38.1229 35.104 38.8129C35.3081 39.5029 35.6831 40.1339 36.1961 40.6511C36.7092 41.1682 37.3448 41.5558 38.0476 41.7799C38.7503 42.004 39.4989 42.058 40.228 41.937C40.9573 41.8161 41.6449 41.5239 42.2311 41.0861C42.8172 40.6481 43.2841 40.0778 43.5911 39.4246C43.898 38.7714 44.0357 38.0554 43.9921 37.3388C43.9485 36.6222 43.725 35.9268 43.341 35.3132ZM25.3807 30.1114C25.9285 29.8657 26.5213 29.7286 27.1244 29.708C27.8653 29.6897 28.5995 29.848 29.2629 30.1687C29.9262 30.4895 30.4984 30.9631 30.9295 31.5481C31.3606 32.1331 31.6374 32.8117 31.7357 33.5245C31.834 34.2374 31.7508 34.9627 31.4935 35.6372C31.236 36.3116 30.8123 36.9146 30.2592 37.3934C29.7062 37.8721 29.0407 38.2121 28.3209 38.3835C27.6012 38.5549 26.8491 38.5526 26.1304 38.3767C25.4118 38.2008 24.7486 37.8568 24.1987 37.3746C23.354 36.6136 22.3629 36.0218 21.2822 35.633C20.2014 35.2443 19.0522 35.0663 17.9005 35.1093C16.7488 35.1522 15.6171 35.4152 14.5702 35.8833C13.5234 36.3513 12.582 37.0151 11.8 37.8368C11.2859 38.3538 10.6492 38.7407 9.94553 38.9639C9.24186 39.1872 8.49253 39.2398 7.76303 39.1174C7.03354 38.995 6.34604 38.7012 5.76047 38.2616C5.17491 37.822 4.70917 37.25 4.4038 36.5955C4.09844 35.941 3.96284 35.224 4.00872 34.507C4.05467 33.7899 4.2807 33.0947 4.66723 32.4819C5.0537 31.8692 5.58882 31.3576 6.22599 30.9917C6.86311 30.6258 7.58288 30.4168 8.32238 30.383C8.92316 30.3602 9.52261 30.4535 10.0858 30.6575C10.6491 30.8616 11.165 31.1723 11.6034 31.5715C13.3004 33.0954 15.5502 33.9055 17.8608 33.8243C20.1714 33.7432 22.355 32.7776 23.934 31.1387C24.341 30.7062 24.8328 30.357 25.3807 30.1114Z" fill="#3E334E"/>
<path d="M69.2841 36H64.7841L72.9773 12.7273H78.1818L86.3864 36H81.8864L75.6705 17.5H75.4886L69.2841 36ZM69.4318 26.875H81.7045V30.2614H69.4318V26.875ZM89.2699 36V18.5455H93.2585V21.4545H93.4403C93.7585 20.447 94.304 19.6705 95.0767 19.125C95.857 18.572 96.7472 18.2955 97.7472 18.2955C97.9744 18.2955 98.2282 18.3068 98.5085 18.3295C98.7964 18.3447 99.035 18.3712 99.2244 18.4091V22.1932C99.0502 22.1326 98.7737 22.0795 98.3949 22.0341C98.0237 21.9811 97.6638 21.9545 97.3153 21.9545C96.5653 21.9545 95.8911 22.1174 95.2926 22.4432C94.7017 22.7614 94.2358 23.2045 93.8949 23.7727C93.554 24.3409 93.3835 24.9962 93.3835 25.7386V36H89.2699ZM108.852 36.3409C107.11 36.3409 105.614 35.9583 104.364 35.1932C103.121 34.428 102.163 33.3712 101.489 32.0227C100.822 30.6667 100.489 29.1061 100.489 27.3409C100.489 25.5682 100.83 24.0038 101.511 22.6477C102.193 21.2841 103.155 20.2235 104.398 19.4659C105.648 18.7008 107.125 18.3182 108.83 18.3182C110.246 18.3182 111.5 18.5795 112.591 19.1023C113.689 19.6174 114.564 20.3485 115.216 21.2955C115.867 22.2348 116.239 23.3333 116.33 24.5909H112.398C112.239 23.75 111.86 23.0492 111.261 22.4886C110.67 21.9205 109.879 21.6364 108.886 21.6364C108.045 21.6364 107.307 21.8636 106.67 22.3182C106.034 22.7652 105.538 23.4091 105.182 24.25C104.833 25.0909 104.659 26.0985 104.659 27.2727C104.659 28.4621 104.833 29.4848 105.182 30.3409C105.53 31.1894 106.019 31.8447 106.648 32.3068C107.284 32.7614 108.03 32.9886 108.886 32.9886C109.492 32.9886 110.034 32.875 110.511 32.6477C110.996 32.4129 111.402 32.0758 111.727 31.6364C112.053 31.197 112.277 30.6629 112.398 30.0341H116.33C116.231 31.2689 115.867 32.3636 115.239 33.3182C114.61 34.2652 113.754 35.0076 112.67 35.5455C111.587 36.0758 110.314 36.3409 108.852 36.3409ZM123.821 25.7727V36H119.707V12.7273H123.73V21.5114H123.935C124.344 20.5265 124.976 19.75 125.832 19.1818C126.696 18.6061 127.795 18.3182 129.128 18.3182C130.34 18.3182 131.397 18.572 132.298 19.0795C133.2 19.5871 133.897 20.3295 134.389 21.3068C134.889 22.2841 135.139 23.4773 135.139 24.8864V36H131.026V25.5227C131.026 24.3485 130.723 23.4356 130.116 22.7841C129.518 22.125 128.677 21.7955 127.594 21.7955C126.866 21.7955 126.215 21.9545 125.639 22.2727C125.071 22.5833 124.624 23.0341 124.298 23.625C123.98 24.2159 123.821 24.9318 123.821 25.7727ZM139.332 36V18.5455H143.446V36H139.332ZM141.401 16.0682C140.749 16.0682 140.188 15.8523 139.719 15.4205C139.249 14.9811 139.014 14.4545 139.014 13.8409C139.014 13.2197 139.249 12.6932 139.719 12.2614C140.188 11.822 140.749 11.6023 141.401 11.6023C142.06 11.6023 142.62 11.822 143.082 12.2614C143.552 12.6932 143.787 13.2197 143.787 13.8409C143.787 14.4545 143.552 14.9811 143.082 15.4205C142.62 15.8523 142.06 16.0682 141.401 16.0682ZM151.79 25.7727V36H147.676V18.5455H151.608V21.5114H151.812C152.214 20.5341 152.854 19.7576 153.733 19.1818C154.619 18.6061 155.714 18.3182 157.017 18.3182C158.222 18.3182 159.271 18.5758 160.165 19.0909C161.066 19.6061 161.763 20.3523 162.256 21.3295C162.756 22.3068 163.002 23.4924 162.994 24.8864V36H158.881V25.5227C158.881 24.3561 158.578 23.4432 157.972 22.7841C157.373 22.125 156.544 21.7955 155.483 21.7955C154.763 21.7955 154.123 21.9545 153.562 22.2727C153.009 22.5833 152.574 23.0341 152.256 23.625C151.945 24.2159 151.79 24.9318 151.79 25.7727ZM175.892 18.5455V21.7273H165.858V18.5455H175.892ZM168.335 14.3636H172.449V30.75C172.449 31.303 172.532 31.7273 172.699 32.0227C172.873 32.3106 173.1 32.5076 173.381 32.6136C173.661 32.7197 173.972 32.7727 174.312 32.7727C174.57 32.7727 174.805 32.7538 175.017 32.7159C175.237 32.678 175.403 32.6439 175.517 32.6136L176.21 35.8295C175.991 35.9053 175.676 35.9886 175.267 36.0795C174.866 36.1705 174.373 36.2235 173.79 36.2386C172.759 36.2689 171.831 36.1136 171.006 35.7727C170.18 35.4242 169.525 34.8864 169.04 34.1591C168.563 33.4318 168.328 32.5227 168.335 31.4318V14.3636Z" fill="#3E334E"/>
</svg>
