<svg width="428" height="220" viewBox="0 0 428 220" fill="none" xmlns="http://www.w3.org/2000/svg">
<rect x="-1" width="429" height="220" fill="#F5DBC4"/>
<path d="M145.246 119.006C139.243 112.941 135.552 104.594 135.552 95.4189C135.552 76.8604 150.652 61.801 169.26 61.801C187.868 61.801 202.993 76.8344 202.993 95.393L177.03 75.694L145.246 119.006Z" fill="#FDC858"/>
<path fill-rule="evenodd" clip-rule="evenodd" d="M169.286 51.796C169.86 51.796 170.325 52.2602 170.325 52.8328V56.4615C170.325 57.0341 169.86 57.4983 169.286 57.4983C168.712 57.4983 168.246 57.0341 168.246 56.4615V52.8328C168.246 52.2602 168.712 51.796 169.286 51.796Z" fill="#007549"/>
<path fill-rule="evenodd" clip-rule="evenodd" d="M169.286 45.0569C169.86 45.0569 170.325 45.521 170.325 46.0936V49.8779C170.325 50.4505 169.86 50.9147 169.286 50.9147C168.712 50.9147 168.246 50.4505 168.246 49.8779V46.0936C168.246 45.521 168.712 45.0569 169.286 45.0569Z" fill="#007549"/>
<path fill-rule="evenodd" clip-rule="evenodd" d="M169.286 36.7366C169.86 36.7366 170.325 37.2008 170.325 37.7734V42.7241C170.325 43.2967 169.86 43.7609 169.286 43.7609C168.712 43.7609 168.246 43.2967 168.246 42.7241V37.7734C168.246 37.2008 168.712 36.7366 169.286 36.7366Z" fill="#007549"/>
<path fill-rule="evenodd" clip-rule="evenodd" d="M161.666 52.4611C162.231 52.3583 162.773 52.7316 162.876 53.2949L163.525 56.8459C163.629 57.4092 163.254 57.9492 162.689 58.052C162.125 58.1548 161.583 57.7815 161.48 57.2182L160.83 53.6672C160.727 53.1039 161.102 52.5639 161.666 52.4611Z" fill="#007549"/>
<path fill-rule="evenodd" clip-rule="evenodd" d="M160.499 45.825C161.064 45.7233 161.605 46.0976 161.707 46.6611L162.382 50.3935C162.484 50.957 162.109 51.4963 161.544 51.5981C160.979 51.6998 160.438 51.3255 160.336 50.762L159.661 47.0295C159.559 46.466 159.934 45.9268 160.499 45.825Z" fill="#007549"/>
<path fill-rule="evenodd" clip-rule="evenodd" d="M159.043 37.6347C159.608 37.5328 160.149 37.907 160.251 38.4704L161.135 43.3433C161.237 43.9068 160.862 44.4462 160.297 44.5481C159.732 44.65 159.191 44.2758 159.089 43.7124L158.205 38.8395C158.103 38.276 158.478 37.7366 159.043 37.6347Z" fill="#007549"/>
<path fill-rule="evenodd" clip-rule="evenodd" d="M154.323 54.4253C154.862 54.2283 155.459 54.5045 155.656 55.0421L156.904 58.4376C157.101 58.9753 156.824 59.5708 156.285 59.7678C155.746 59.9648 155.149 59.6887 154.952 59.151L153.704 55.7555C153.507 55.2179 153.783 54.6223 154.323 54.4253Z" fill="#007549"/>
<path fill-rule="evenodd" clip-rule="evenodd" d="M152.011 48.1007C152.55 47.9044 153.147 48.1813 153.344 48.7192L154.643 52.2702C154.84 52.8081 154.562 53.4033 154.023 53.5996C153.484 53.7959 152.887 53.519 152.69 52.9811L151.391 49.4301C151.194 48.8922 151.471 48.297 152.011 48.1007Z" fill="#007549"/>
<path fill-rule="evenodd" clip-rule="evenodd" d="M149.151 40.2735C149.69 40.0764 150.287 40.3524 150.484 40.89L152.2 45.5555C152.397 46.0931 152.121 46.6888 151.582 46.8859C151.043 47.083 150.445 46.807 150.248 46.2694L148.532 41.6038C148.335 41.0662 148.612 40.4706 149.151 40.2735Z" fill="#007549"/>
<path fill-rule="evenodd" clip-rule="evenodd" d="M147.403 57.6377C147.9 57.351 148.535 57.5203 148.823 58.016L150.642 61.1522C150.93 61.6479 150.76 62.2821 150.263 62.5689C149.766 62.8556 149.13 62.6862 148.843 62.1906L147.023 59.0543C146.736 58.5587 146.906 57.9244 147.403 57.6377Z" fill="#007549"/>
<path fill-rule="evenodd" clip-rule="evenodd" d="M144.053 51.8043C144.55 51.5189 145.186 51.6901 145.472 52.1865L147.369 55.4783C147.655 55.9747 147.484 56.6085 146.986 56.8938C146.488 57.1792 145.853 57.0081 145.567 56.5116L143.669 53.2198C143.383 52.7234 143.555 52.0896 144.053 51.8043Z" fill="#007549"/>
<path fill-rule="evenodd" clip-rule="evenodd" d="M139.866 44.6C140.363 44.3133 140.999 44.4828 141.286 44.9785L143.781 49.2811C144.069 49.7768 143.899 50.411 143.402 50.6977C142.905 50.9844 142.269 50.8149 141.981 50.3192L139.487 46.0165C139.199 45.5209 139.369 44.8867 139.866 44.6Z" fill="#007549"/>
<path fill-rule="evenodd" clip-rule="evenodd" d="M141.173 61.9925C141.612 61.6239 142.268 61.6804 142.637 62.1186L144.976 64.892C145.346 65.3302 145.289 65.9842 144.85 66.3528C144.411 66.7214 143.755 66.6649 143.385 66.2267L141.046 63.4533C140.677 63.0151 140.733 62.3611 141.173 61.9925Z" fill="#007549"/>
<path fill-rule="evenodd" clip-rule="evenodd" d="M136.833 56.8338C137.273 56.4657 137.929 56.5228 138.298 56.9614L140.741 59.8644C141.11 60.303 141.053 60.957 140.613 61.3251C140.173 61.6932 139.517 61.6361 139.148 61.1975L136.705 58.2945C136.336 57.8559 136.394 57.2019 136.833 56.8338Z" fill="#007549"/>
<path fill-rule="evenodd" clip-rule="evenodd" d="M131.452 50.4592C131.891 50.09 132.547 50.1455 132.917 50.5832L136.139 54.3934C136.509 54.831 136.454 55.4851 136.015 55.8543C135.576 56.2235 134.92 56.168 134.55 55.7304L131.327 51.9202C130.957 51.4825 131.013 50.8284 131.452 50.4592Z" fill="#007549"/>
<path fill-rule="evenodd" clip-rule="evenodd" d="M135.793 67.3849C136.16 66.9447 136.815 66.8847 137.257 67.2508L140.038 69.5577C140.479 69.9239 140.539 70.5776 140.172 71.0178C139.805 71.458 139.149 71.518 138.708 71.1519L135.927 68.845C135.486 68.4789 135.426 67.8251 135.793 67.3849Z" fill="#007549"/>
<path fill-rule="evenodd" clip-rule="evenodd" d="M130.627 63.0493C130.998 62.6123 131.654 62.5581 132.092 62.9281L134.977 65.3646C135.415 65.7346 135.469 66.3888 135.098 66.8258C134.727 67.2628 134.071 67.317 133.633 66.947L130.748 64.5105C130.31 64.1405 130.256 63.4862 130.627 63.0493Z" fill="#007549"/>
<path fill-rule="evenodd" clip-rule="evenodd" d="M124.204 57.6886C124.572 57.2495 125.228 57.1913 125.668 57.5588L129.489 60.7469C129.929 61.1144 129.987 61.7683 129.619 62.2074C129.25 62.6466 128.595 62.7047 128.154 62.3372L124.334 59.1491C123.894 58.7817 123.835 58.1278 124.204 57.6886Z" fill="#007549"/>
<path fill-rule="evenodd" clip-rule="evenodd" d="M131.404 73.5934C131.692 73.0978 132.328 72.9284 132.825 73.2152L135.969 75.0296C136.466 75.3163 136.636 75.9505 136.348 76.4462C136.061 76.9418 135.425 77.1112 134.928 76.8244L131.783 75.01C131.286 74.7233 131.117 74.0891 131.404 73.5934Z" fill="#007549"/>
<path fill-rule="evenodd" clip-rule="evenodd" d="M125.555 70.2264C125.841 69.7299 126.477 69.5588 126.975 69.8442L130.275 71.7363C130.773 72.0217 130.944 72.6554 130.658 73.1519C130.372 73.6483 129.737 73.8194 129.239 73.5341L125.938 71.6419C125.441 71.3566 125.269 70.7228 125.555 70.2264Z" fill="#007549"/>
<path fill-rule="evenodd" clip-rule="evenodd" d="M118.332 66.0512C118.619 65.5555 119.255 65.3861 119.752 65.6727L124.066 68.161C124.563 68.4477 124.733 69.0819 124.446 69.5776C124.158 70.0732 123.522 70.2427 123.025 69.956L118.711 67.4677C118.214 67.1811 118.044 66.5469 118.332 66.0512Z" fill="#007549"/>
<path fill-rule="evenodd" clip-rule="evenodd" d="M128.18 80.5042C128.373 79.9648 128.967 79.6832 129.508 79.8753L132.939 81.0935C133.479 81.2856 133.762 81.8786 133.569 82.418C133.377 82.9574 132.782 83.239 132.241 83.047L128.811 81.8287C128.27 81.6367 127.987 81.0437 128.18 80.5042Z" fill="#007549"/>
<path fill-rule="evenodd" clip-rule="evenodd" d="M121.841 78.192C122.036 77.6536 122.632 77.3753 123.172 77.5704L126.759 78.8664C127.298 79.0614 127.577 79.656 127.382 80.1943C127.186 80.7327 126.59 81.011 126.05 80.8159L122.464 79.5199C121.924 79.3249 121.645 78.7303 121.841 78.192Z" fill="#007549"/>
<path fill-rule="evenodd" clip-rule="evenodd" d="M113.992 75.3419C114.187 74.8033 114.783 74.5244 115.323 74.7188L120.001 76.4036C120.541 76.5981 120.82 77.1924 120.625 77.7309C120.43 78.2695 119.834 78.5484 119.294 78.3539L114.616 76.6691C114.076 76.4747 113.797 75.8804 113.992 75.3419Z" fill="#007549"/>
<path fill-rule="evenodd" clip-rule="evenodd" d="M126.212 87.8282C126.31 87.2641 126.849 86.8863 127.414 86.9844L131.001 87.6064C131.566 87.7046 131.945 88.2414 131.847 88.8055C131.748 89.3697 131.21 89.7475 130.644 89.6494L127.058 89.0273C126.492 88.9292 126.114 88.3923 126.212 87.8282Z" fill="#007549"/>
<path fill-rule="evenodd" clip-rule="evenodd" d="M119.585 86.6609C119.684 86.0969 120.223 85.7195 120.788 85.8182L124.504 86.4661C125.07 86.5648 125.448 87.1019 125.349 87.666C125.251 88.23 124.712 88.6074 124.146 88.5087L120.43 87.8608C119.864 87.7621 119.486 87.225 119.585 86.6609Z" fill="#007549"/>
<path fill-rule="evenodd" clip-rule="evenodd" d="M111.347 85.2096C111.445 84.6455 111.984 84.2681 112.549 84.3666L117.461 85.222C118.027 85.3205 118.405 85.8576 118.307 86.4216C118.208 86.9857 117.669 87.3631 117.104 87.2646L112.192 86.4093C111.626 86.3108 111.248 85.7737 111.347 85.2096Z" fill="#007549"/>
<path fill-rule="evenodd" clip-rule="evenodd" d="M125.547 95.393C125.547 94.8204 126.012 94.3562 126.586 94.3562H130.225C130.799 94.3562 131.264 94.8204 131.264 95.393C131.264 95.9656 130.799 96.4298 130.225 96.4298H126.586C126.012 96.4298 125.547 95.9656 125.547 95.393Z" fill="#007549"/>
<path fill-rule="evenodd" clip-rule="evenodd" d="M118.816 95.393C118.816 94.8204 119.281 94.3562 119.855 94.3562H123.65C124.224 94.3562 124.689 94.8204 124.689 95.393C124.689 95.9656 124.224 96.4298 123.65 96.4298H119.855C119.281 96.4298 118.816 95.9656 118.816 95.393Z" fill="#007549"/>
<path fill-rule="evenodd" clip-rule="evenodd" d="M110.448 95.393C110.448 94.8204 110.913 94.3562 111.487 94.3562H116.477C117.051 94.3562 117.516 94.8204 117.516 95.393C117.516 95.9656 117.051 96.4298 116.477 96.4298H111.487C110.913 96.4298 110.448 95.9656 110.448 95.393Z" fill="#007549"/>
<path fill-rule="evenodd" clip-rule="evenodd" d="M131.847 101.981C131.945 102.545 131.566 103.082 131.001 103.18L127.414 103.802C126.849 103.9 126.31 103.522 126.212 102.958C126.114 102.394 126.492 101.857 127.058 101.759L130.644 101.137C131.21 101.039 131.748 101.417 131.847 101.981Z" fill="#007549"/>
<path fill-rule="evenodd" clip-rule="evenodd" d="M125.349 103.12C125.448 103.684 125.07 104.221 124.504 104.32L120.788 104.968C120.223 105.067 119.684 104.689 119.585 104.125C119.486 103.561 119.864 103.024 120.43 102.925L124.146 102.277C124.712 102.179 125.251 102.556 125.349 103.12Z" fill="#007549"/>
<path fill-rule="evenodd" clip-rule="evenodd" d="M118.307 104.365C118.405 104.929 118.027 105.466 117.461 105.564L112.549 106.42C111.984 106.518 111.445 106.141 111.347 105.577C111.248 105.013 111.626 104.475 112.192 104.377L117.104 103.522C117.669 103.423 118.208 103.801 118.307 104.365Z" fill="#007549"/>
<path fill-rule="evenodd" clip-rule="evenodd" d="M133.567 108.361C133.763 108.9 133.485 109.494 132.945 109.69L129.515 110.934C128.975 111.13 128.379 110.852 128.182 110.314C127.986 109.776 128.265 109.181 128.804 108.986L132.235 107.741C132.774 107.546 133.371 107.823 133.567 108.361Z" fill="#007549"/>
<path fill-rule="evenodd" clip-rule="evenodd" d="M127.382 110.618C127.577 111.156 127.298 111.751 126.759 111.946L123.172 113.242C122.632 113.437 122.036 113.159 121.841 112.62C121.645 112.082 121.924 111.487 122.464 111.292L126.05 109.996C126.59 109.801 127.186 110.079 127.382 110.618Z" fill="#007549"/>
<path fill-rule="evenodd" clip-rule="evenodd" d="M120.623 113.05C120.821 113.588 120.544 114.183 120.005 114.381L115.327 116.091C114.788 116.288 114.191 116.012 113.994 115.475C113.796 114.937 114.073 114.342 114.612 114.144L119.29 112.434C119.829 112.237 120.426 112.513 120.623 113.05Z" fill="#007549"/>
<path fill-rule="evenodd" clip-rule="evenodd" d="M136.348 114.34C136.636 114.835 136.466 115.47 135.969 115.756L132.825 117.571C132.328 117.858 131.692 117.688 131.404 117.193C131.117 116.697 131.286 116.063 131.783 115.776L134.928 113.962C135.425 113.675 136.061 113.844 136.348 114.34Z" fill="#007549"/>
<path fill-rule="evenodd" clip-rule="evenodd" d="M130.658 117.634C130.944 118.131 130.773 118.764 130.275 119.05L126.975 120.942C126.477 121.227 125.841 121.056 125.555 120.56C125.269 120.063 125.441 119.429 125.938 119.144L129.239 117.252C129.737 116.967 130.372 117.138 130.658 117.634Z" fill="#007549"/>
<path fill-rule="evenodd" clip-rule="evenodd" d="M124.446 121.209C124.733 121.704 124.563 122.339 124.066 122.625L119.752 125.113C119.255 125.4 118.619 125.231 118.332 124.735C118.044 124.239 118.214 123.605 118.711 123.318L123.025 120.83C123.522 120.544 124.158 120.713 124.446 121.209Z" fill="#007549"/>
<path fill-rule="evenodd" clip-rule="evenodd" d="M210.366 80.5042C210.558 81.0437 210.276 81.6367 209.735 81.8287L206.305 83.047C205.764 83.239 205.169 82.9574 204.977 82.418C204.784 81.8786 205.066 81.2856 205.607 81.0935L209.038 79.8753C209.579 79.6832 210.173 79.9648 210.366 80.5042Z" fill="#007549"/>
<path fill-rule="evenodd" clip-rule="evenodd" d="M216.705 78.192C216.901 78.7303 216.622 79.3249 216.082 79.5199L212.495 80.8159C211.956 81.011 211.359 80.7327 211.164 80.1943C210.968 79.656 211.247 79.0614 211.787 78.8664L215.374 77.5704C215.913 77.3753 216.51 77.6536 216.705 78.192Z" fill="#007549"/>
<path fill-rule="evenodd" clip-rule="evenodd" d="M207.142 73.5934C207.429 74.0891 207.259 74.7233 206.762 75.01L203.618 76.8244C203.121 77.1112 202.485 76.9418 202.197 76.4462C201.91 75.9505 202.08 75.3163 202.577 75.0296L205.721 73.2152C206.218 72.9284 206.854 73.0978 207.142 73.5934Z" fill="#007549"/>
<path fill-rule="evenodd" clip-rule="evenodd" d="M212.991 70.2264C213.277 70.7228 213.105 71.3566 212.607 71.6419L209.307 73.5341C208.809 73.8194 208.174 73.6483 207.887 73.1519C207.601 72.6554 207.773 72.0217 208.271 71.7363L211.571 69.8442C212.069 69.5588 212.704 69.7299 212.991 70.2264Z" fill="#007549"/>
<path fill-rule="evenodd" clip-rule="evenodd" d="M220.214 66.0512C220.501 66.5469 220.332 67.1811 219.835 67.4677L215.52 69.956C215.023 70.2427 214.388 70.0732 214.1 69.5776C213.813 69.0819 213.983 68.4477 214.48 68.161L218.794 65.6727C219.291 65.3861 219.927 65.5555 220.214 66.0512Z" fill="#007549"/>
<path fill-rule="evenodd" clip-rule="evenodd" d="M202.75 67.3812C203.119 67.8198 203.062 68.4737 202.622 68.8419L199.867 71.1488C199.428 71.517 198.772 71.46 198.403 71.0215C198.034 70.5829 198.091 69.929 198.53 69.5608L201.285 67.2539C201.725 66.8857 202.381 66.9427 202.75 67.3812Z" fill="#007549"/>
<path fill-rule="evenodd" clip-rule="evenodd" d="M207.919 63.0493C208.29 63.4862 208.235 64.1405 207.797 64.5105L204.913 66.947C204.474 67.317 203.818 67.2628 203.447 66.8258C203.076 66.3888 203.131 65.7346 203.569 65.3646L206.454 62.9281C206.892 62.5581 207.548 62.6123 207.919 63.0493Z" fill="#007549"/>
<path fill-rule="evenodd" clip-rule="evenodd" d="M214.342 57.6886C214.71 58.1278 214.652 58.7817 214.212 59.1491L210.391 62.3372C209.951 62.7047 209.295 62.6466 208.927 62.2074C208.559 61.7683 208.617 61.1144 209.057 60.7469L212.877 57.5588C213.318 57.1913 213.973 57.2495 214.342 57.6886Z" fill="#007549"/>
<path fill-rule="evenodd" clip-rule="evenodd" d="M197.373 61.9925C197.813 62.3611 197.869 63.0151 197.5 63.4533L195.161 66.2267C194.791 66.6649 194.135 66.7214 193.696 66.3528C193.256 65.9842 193.2 65.3302 193.569 64.892L195.908 62.1186C196.278 61.6804 196.934 61.6239 197.373 61.9925Z" fill="#007549"/>
<path fill-rule="evenodd" clip-rule="evenodd" d="M201.712 56.8338C202.152 57.2019 202.209 57.8559 201.84 58.2945L199.397 61.1975C199.028 61.6361 198.373 61.6932 197.933 61.3251C197.493 60.957 197.436 60.303 197.805 59.8644L200.248 56.9614C200.617 56.5228 201.273 56.4657 201.712 56.8338Z" fill="#007549"/>
<path fill-rule="evenodd" clip-rule="evenodd" d="M207.091 50.4565C207.531 50.824 207.589 51.4778 207.221 51.917L204.024 55.7272C203.656 56.1663 203 56.2245 202.56 55.857C202.12 55.4896 202.061 54.8357 202.43 54.3965L205.626 50.5863C205.995 50.1472 206.65 50.0891 207.091 50.4565Z" fill="#007549"/>
<path fill-rule="evenodd" clip-rule="evenodd" d="M191.143 57.6377C191.64 57.9244 191.81 58.5587 191.522 59.0543L189.703 62.1906C189.416 62.6862 188.78 62.8556 188.283 62.5689C187.786 62.2821 187.616 61.6479 187.904 61.1522L189.723 58.016C190.01 57.5203 190.646 57.351 191.143 57.6377Z" fill="#007549"/>
<path fill-rule="evenodd" clip-rule="evenodd" d="M194.493 51.8043C194.991 52.0896 195.162 52.7234 194.876 53.2198L192.979 56.5116C192.693 57.0081 192.058 57.1792 191.56 56.8938C191.062 56.6085 190.891 55.9747 191.177 55.4783L193.074 52.1865C193.36 51.6901 193.995 51.5189 194.493 51.8043Z" fill="#007549"/>
<path fill-rule="evenodd" clip-rule="evenodd" d="M198.68 44.6C199.177 44.8867 199.347 45.5209 199.059 46.0165L196.564 50.3192C196.277 50.8149 195.641 50.9844 195.144 50.6977C194.647 50.411 194.477 49.7768 194.764 49.2811L197.259 44.9785C197.547 44.4828 198.183 44.3133 198.68 44.6Z" fill="#007549"/>
<path fill-rule="evenodd" clip-rule="evenodd" d="M184.223 54.4253C184.762 54.6223 185.039 55.2179 184.842 55.7555L183.594 59.151C183.397 59.6887 182.8 59.9648 182.26 59.7678C181.721 59.5708 181.444 58.9753 181.642 58.4376L182.889 55.0421C183.087 54.5045 183.684 54.2283 184.223 54.4253Z" fill="#007549"/>
<path fill-rule="evenodd" clip-rule="evenodd" d="M186.535 48.1007C187.074 48.297 187.352 48.8922 187.155 49.4301L185.856 52.9811C185.659 53.519 185.062 53.7959 184.523 53.5996C183.984 53.4033 183.706 52.8081 183.903 52.2702L185.202 48.7192C185.399 48.1813 185.996 47.9044 186.535 48.1007Z" fill="#007549"/>
<path fill-rule="evenodd" clip-rule="evenodd" d="M189.395 40.2735C189.934 40.4706 190.211 41.0662 190.013 41.6038L188.298 46.2694C188.1 46.807 187.503 47.083 186.964 46.8859C186.425 46.6888 186.148 46.0931 186.346 45.5555L188.061 40.89C188.259 40.3524 188.856 40.0764 189.395 40.2735Z" fill="#007549"/>
<path fill-rule="evenodd" clip-rule="evenodd" d="M176.879 52.4611C177.444 52.5639 177.818 53.1039 177.715 53.6672L177.066 57.2182C176.962 57.7815 176.421 58.1548 175.856 58.052C175.291 57.9492 174.917 57.4092 175.02 56.8459L175.67 53.2949C175.773 52.7316 176.314 52.3583 176.879 52.4611Z" fill="#007549"/>
<path fill-rule="evenodd" clip-rule="evenodd" d="M178.047 45.825C178.612 45.9268 178.987 46.466 178.885 47.0295L178.209 50.762C178.107 51.3255 177.567 51.6998 177.002 51.5981C176.437 51.4963 176.061 50.957 176.163 50.3935L176.839 46.6611C176.941 46.0976 177.482 45.7233 178.047 45.825Z" fill="#007549"/>
<path fill-rule="evenodd" clip-rule="evenodd" d="M179.503 37.6347C180.067 37.7366 180.443 38.276 180.34 38.8395L179.457 43.7124C179.355 44.2758 178.814 44.65 178.249 44.5481C177.684 44.4462 177.309 43.9068 177.411 43.3433L178.295 38.4704C178.397 37.907 178.938 37.5328 179.503 37.6347Z" fill="#007549"/>
<path fill-rule="evenodd" clip-rule="evenodd" d="M102.365 188.885C102.365 188.313 102.83 187.849 103.405 187.849H139.633C140.207 187.849 140.672 188.313 140.672 188.885C140.672 189.458 140.207 189.922 139.633 189.922H103.405C102.83 189.922 102.365 189.458 102.365 188.885Z" fill="#355B3E"/>
<path fill-rule="evenodd" clip-rule="evenodd" d="M143.141 188.885C143.141 188.313 143.607 187.849 144.181 187.849H196.028C196.602 187.849 197.068 188.313 197.068 188.885C197.068 189.458 196.602 189.922 196.028 189.922H144.181C143.607 189.922 143.141 189.458 143.141 188.885Z" fill="#355B3E"/>
<path fill-rule="evenodd" clip-rule="evenodd" d="M284.104 188.885C284.104 188.313 284.569 187.849 285.144 187.849H289.848C290.422 187.849 290.887 188.313 290.887 188.885C290.887 189.458 290.422 189.922 289.848 189.922H285.144C284.569 189.922 284.104 189.458 284.104 188.885Z" fill="#355B3E"/>
<path fill-rule="evenodd" clip-rule="evenodd" d="M293.33 188.885C293.33 188.313 293.795 187.849 294.37 187.849H316.876C317.45 187.849 317.915 188.313 317.915 188.885C317.915 189.458 317.45 189.922 316.876 189.922H294.37C293.795 189.922 293.33 189.458 293.33 188.885Z" fill="#355B3E"/>
<path fill-rule="evenodd" clip-rule="evenodd" d="M319.734 188.885C319.734 188.313 320.2 187.849 320.774 187.849H322.463C323.037 187.849 323.503 188.313 323.503 188.885C323.503 189.458 323.037 189.922 322.463 189.922H320.774C320.2 189.922 319.734 189.458 319.734 188.885Z" fill="#355B3E"/>
<path fill-rule="evenodd" clip-rule="evenodd" d="M177.015 74.771C177.292 74.7321 177.573 74.8059 177.794 74.9758L206.278 96.8262C206.733 97.1753 206.818 97.8262 206.468 98.2801C206.118 98.734 205.465 98.8189 205.01 98.4698L177.368 77.2648L127.034 145.411C126.693 145.872 126.042 145.97 125.58 145.631C125.118 145.291 125.019 144.642 125.36 144.181L176.323 75.1827C176.489 74.9583 176.739 74.81 177.015 74.771Z" fill="#007549"/>
<path fill-rule="evenodd" clip-rule="evenodd" d="M228.931 64.9424C229.224 64.9133 229.515 65.0093 229.733 65.2066L291.534 121.193C291.959 121.578 291.991 122.234 291.605 122.658C291.219 123.082 290.561 123.113 290.136 122.728L229.188 67.514L193.461 115.888C193.12 116.349 192.469 116.448 192.007 116.108C191.545 115.769 191.446 115.12 191.787 114.659L228.197 65.3592C228.371 65.1229 228.638 64.9715 228.931 64.9424Z" fill="#007549"/>
<path fill-rule="evenodd" clip-rule="evenodd" d="M201.896 93.4605C202.377 93.7721 202.515 94.4141 202.202 94.8945L199.083 99.6896C198.813 100.105 198.286 100.272 197.825 100.088L190.687 97.2405L187.775 101.664C187.517 102.056 187.028 102.227 186.581 102.08L180.927 100.224L178.076 102.866C177.785 103.135 177.366 103.216 176.995 103.074L169.396 100.161L163.614 102.448C163.184 102.618 162.694 102.484 162.41 102.121L159.863 98.8548C159.511 98.4028 159.592 97.7514 160.045 97.3998C160.499 97.0483 161.152 97.1297 161.504 97.5817L163.572 100.234L169.007 98.0839C169.249 97.9879 169.519 97.9865 169.763 98.0799L177.136 100.906L179.961 98.2881C180.239 98.0311 180.634 97.9448 180.994 98.0629L186.475 99.8621L189.416 95.3942C189.687 94.9821 190.212 94.8175 190.671 95.0006L197.804 97.8463L200.458 93.7661C200.77 93.2857 201.414 93.1488 201.896 93.4605Z" fill="#007549"/>
<path fill-rule="evenodd" clip-rule="evenodd" d="M240.882 84.34C241.109 84.0047 241.512 83.8323 241.912 83.8986L251.944 85.5574C252.51 85.6511 252.893 86.185 252.8 86.7499C252.706 87.3147 252.17 87.6968 251.604 87.6031L242.23 86.0529L238.731 91.2051C238.416 91.6683 237.79 91.7991 237.316 91.5008L231.852 88.0654L224.2 92.1841C223.695 92.4558 223.065 92.2684 222.792 91.7654L220.284 87.1456L213.154 88.7829C212.595 88.9114 212.037 88.5632 211.908 88.0052C211.779 87.4472 212.128 86.8907 212.688 86.7622L220.588 84.9478C221.044 84.8433 221.513 85.0546 221.736 85.4645L224.126 89.8676L231.399 85.953C231.729 85.7753 232.13 85.7888 232.447 85.9883L237.573 89.2116L240.882 84.34Z" fill="#007549"/>
<path fill-rule="evenodd" clip-rule="evenodd" d="M250.111 62.5527C250.111 56.7443 254.812 52.0552 260.636 52.0552C264.561 52.0552 268.013 54.2223 269.809 57.4176C270.354 57.3014 270.92 57.2391 271.499 57.2391C274.58 57.2391 277.272 58.9936 278.579 61.5614C278.803 61.5317 279.034 61.5159 279.27 61.5159C282.157 61.5159 284.52 63.8722 284.52 66.7517C284.52 67.4731 284.357 68.1796 284.1 68.7869C283.938 69.1714 283.561 69.4214 283.142 69.4214H246.134C245.793 69.4214 245.474 69.2544 245.28 68.9746C245.085 68.6948 245.041 68.3378 245.162 68.0193C246.008 65.777 247.835 64.048 250.142 63.3236C250.122 63.0698 250.111 62.8126 250.111 62.5527ZM260.636 54.1288C255.961 54.1288 252.19 57.8895 252.19 62.5527C252.19 63.0033 252.235 63.4675 252.308 63.9541C252.391 64.5068 252.02 65.0258 251.469 65.1274C249.989 65.4001 248.724 66.2083 247.875 67.3478H282.379C282.419 67.1508 282.441 66.9496 282.441 66.7517C282.441 65.0174 281.009 63.5895 279.27 63.5895C278.917 63.5895 278.586 63.6484 278.299 63.7436C277.766 63.9209 277.188 63.6432 276.994 63.1167C276.18 60.8994 274.018 59.3127 271.499 59.3127C270.835 59.3127 270.193 59.4231 269.593 59.6224C269.088 59.7904 268.537 59.5502 268.317 59.0661C266.999 56.1593 264.035 54.1288 260.636 54.1288Z" fill="#007549"/>
<path fill-rule="evenodd" clip-rule="evenodd" d="M289.198 80.5151C289.198 76.0027 292.86 72.3503 297.384 72.3503C301.622 72.3503 305.104 75.5553 305.527 79.67C305.636 79.6632 305.745 79.6597 305.856 79.6597C308.896 79.6597 311.392 82.1158 311.392 85.1806V85.3102C311.392 85.8828 310.927 86.347 310.352 86.347H286.729C286.155 86.347 285.689 85.8828 285.689 85.3102V85.2067C285.689 83.045 287.2 81.256 289.201 80.7893C289.199 80.6977 289.198 80.6063 289.198 80.5151ZM297.384 74.4239C294.008 74.4239 291.277 77.1479 291.277 80.5151C291.277 80.887 291.3 81.2032 291.361 81.504C291.422 81.8086 291.343 82.1245 291.145 82.3647C290.948 82.6049 290.653 82.7442 290.341 82.7442H290.237C289.211 82.7442 288.322 83.3737 287.952 84.2734H309.192C308.792 82.8055 307.443 81.7333 305.856 81.7333C305.506 81.7333 305.169 81.7913 304.841 81.8934C304.525 81.9918 304.182 81.9345 303.915 81.7392C303.649 81.5438 303.491 81.2337 303.491 80.9039V80.5151C303.491 77.1479 300.76 74.4239 297.384 74.4239Z" fill="#007549"/>
<path d="M172.483 188.885C165.907 188.885 160.554 183.546 160.554 176.988C160.554 170.431 165.907 165.091 172.483 165.091C179.058 165.091 184.411 170.431 184.411 176.988C184.411 183.546 179.058 188.885 172.483 188.885Z" fill="#65CDD5"/>
<path fill-rule="evenodd" clip-rule="evenodd" d="M172.483 166.128C166.482 166.128 161.593 171.003 161.593 176.988C161.593 182.973 166.482 187.849 172.483 187.849C178.484 187.849 183.372 182.973 183.372 176.988C183.372 171.003 178.484 166.128 172.483 166.128ZM159.514 176.988C159.514 169.858 165.333 164.054 172.483 164.054C179.632 164.054 185.451 169.858 185.451 176.988C185.451 184.119 179.632 189.922 172.483 189.922C165.333 189.922 159.514 184.119 159.514 176.988Z" fill="#355B3E"/>
<path d="M172.483 183.209C169.052 183.209 166.245 180.41 166.245 176.988C166.245 173.567 169.052 170.768 172.483 170.768C175.913 170.768 178.72 173.567 178.72 176.988C178.72 180.41 175.913 183.209 172.483 183.209Z" fill="#FDC858"/>
<path fill-rule="evenodd" clip-rule="evenodd" d="M172.483 171.804C169.626 171.804 167.285 174.139 167.285 176.988C167.285 179.837 169.626 182.172 172.483 182.172C175.339 182.172 177.68 179.837 177.68 176.988C177.68 174.139 175.339 171.804 172.483 171.804ZM165.206 176.988C165.206 172.994 168.478 169.731 172.483 169.731C176.487 169.731 179.759 172.994 179.759 176.988C179.759 180.982 176.487 184.246 172.483 184.246C168.478 184.246 165.206 180.982 165.206 176.988Z" fill="#355B3E"/>
<path d="M172.482 179.036C171.339 179.036 170.429 178.103 170.429 176.988C170.429 175.848 171.365 174.941 172.482 174.941C173.626 174.941 174.536 175.874 174.536 176.988C174.536 178.103 173.626 179.036 172.482 179.036Z" fill="#FDC858"/>
<path fill-rule="evenodd" clip-rule="evenodd" d="M172.483 175.977C171.931 175.977 171.469 176.429 171.469 176.988C171.469 177.539 171.922 177.999 172.483 177.999C173.043 177.999 173.496 177.539 173.496 176.988C173.496 176.438 173.043 175.977 172.483 175.977ZM169.39 176.988C169.39 175.267 170.799 173.904 172.483 173.904C174.209 173.904 175.575 175.31 175.575 176.988C175.575 178.667 174.209 180.073 172.483 180.073C170.756 180.073 169.39 178.667 169.39 176.988Z" fill="#355B3E"/>
<path d="M267.861 140.778L265.418 131.525C264.457 127.819 261.286 125.123 257.466 124.708C246.55 123.542 233.322 122.868 217.885 122.868C200.212 122.868 173.054 124.216 164.894 125.149C163.412 125.304 162.139 126.263 161.541 127.637L156.629 139.094C154.368 143.137 152.991 147.595 152.601 152.209L152.497 177.973L157.981 178.077C157.955 177.714 157.929 177.351 157.929 176.988C157.929 168.979 164.426 162.499 172.457 162.499C180.487 162.499 186.984 168.979 186.984 176.988C186.984 177.455 186.958 177.921 186.906 178.362L225.11 178.829C225.032 178.232 224.98 177.61 224.98 176.988C224.98 168.979 231.477 162.499 239.507 162.499C247.538 162.499 254.035 168.979 254.035 176.988C254.035 177.714 253.983 178.414 253.879 179.114L269.29 179.269V152.416C269.368 148.503 268.849 144.589 267.861 140.778Z" fill="#3F7539"/>
<g opacity="0.36">
<path opacity="0.36" d="M155.408 177.973L155.512 152.209C155.902 147.595 157.279 143.137 159.54 139.094L164.452 127.637C165.05 126.263 166.323 125.33 167.805 125.149C175.731 124.242 201.538 122.946 219.21 122.868C218.768 122.868 218.327 122.868 217.885 122.868C200.212 122.868 173.054 124.216 164.894 125.149C163.412 125.304 162.139 126.263 161.541 127.637L156.629 139.094C154.368 143.137 152.991 147.595 152.601 152.209L152.497 177.973L157.981 178.077C157.981 178.051 157.981 178.051 157.981 178.025L155.408 177.973Z" fill="#3F7539"/>
<path opacity="0.36" d="M256.842 179.114C256.946 178.414 256.998 177.714 256.998 176.988C256.998 168.979 250.501 162.499 242.47 162.499C241.976 162.499 241.508 162.525 241.015 162.577C248.369 163.303 254.087 169.472 254.087 176.988C254.087 177.714 254.035 178.414 253.931 179.114L269.342 179.269V179.243L256.842 179.114Z" fill="#3F7539"/>
<path opacity="0.36" d="M189.843 178.336C189.895 177.895 189.921 177.429 189.921 176.962C189.921 168.953 183.424 162.473 175.393 162.473C174.899 162.473 174.432 162.499 173.938 162.551C181.293 163.277 187.01 169.446 187.01 176.962C187.01 177.429 186.984 177.895 186.932 178.336L225.136 178.803V178.777L189.843 178.336Z" fill="#3F7539"/>
</g>
<path opacity="0.36" d="M189.895 176.003H224.616V172.556H189.219C189.583 173.671 189.791 174.811 189.895 176.003Z" fill="#3F7539"/>
<g opacity="0.25">
<path opacity="0.25" d="M268.381 140.519L265.938 131.266C264.976 127.559 261.806 124.864 257.985 124.449C247.07 123.283 233.842 122.609 218.405 122.609C200.732 122.609 173.574 123.957 165.414 124.89C164.14 125.045 162.997 125.771 162.347 126.86C162.347 126.86 162.347 126.419 162.373 126.419C170.533 125.486 197.692 124.579 215.364 124.579C230.827 124.579 244.029 125.253 254.945 126.419C258.765 126.834 261.91 129.529 262.897 133.236L265.34 142.489C266.354 146.299 266.847 150.213 266.847 154.127V178.984L269.914 179.01V152.157C269.888 148.243 269.368 144.329 268.381 140.519Z" fill="#3F7539"/>
</g>
<path fill-rule="evenodd" clip-rule="evenodd" d="M164.78 124.118C173 123.179 200.194 121.831 217.885 121.831C233.351 121.831 246.617 122.506 257.576 123.677L257.578 123.677C261.82 124.138 265.351 127.133 266.424 131.262C266.424 131.263 266.424 131.264 266.424 131.265L268.866 140.514L268.868 140.519C269.875 144.406 270.409 148.411 270.33 152.427V179.269C270.33 179.546 270.219 179.811 270.022 180.006C269.825 180.201 269.557 180.309 269.28 180.306L253.869 180.15C253.568 180.147 253.284 180.015 253.089 179.787C252.893 179.559 252.807 179.258 252.851 178.962C252.947 178.313 252.995 177.664 252.995 176.988C252.995 169.552 246.964 163.536 239.507 163.536C232.051 163.536 226.019 169.552 226.019 176.988C226.019 177.554 226.067 178.13 226.14 178.695C226.179 178.993 226.087 179.293 225.887 179.517C225.686 179.742 225.398 179.869 225.097 179.865L186.893 179.399C186.599 179.395 186.32 179.267 186.125 179.046C185.931 178.825 185.839 178.533 185.874 178.241C185.921 177.844 185.945 177.418 185.945 176.988C185.945 169.552 179.913 163.536 172.457 163.536C165 163.536 158.968 169.552 158.968 176.988C158.968 177.308 158.991 177.634 159.018 178.003C159.039 178.294 158.936 178.579 158.735 178.791C158.534 179.002 158.253 179.119 157.961 179.114L152.477 179.01C151.91 178.999 151.455 178.536 151.458 177.969L151.562 152.205C151.562 152.177 151.563 152.15 151.565 152.122C151.966 147.378 153.379 142.794 155.695 138.636L160.585 127.229L160.588 127.224C161.328 125.522 162.914 124.316 164.78 124.118ZM217.885 123.905C200.234 123.905 173.119 125.252 165.012 126.179L165.003 126.18C163.909 126.295 162.95 127.005 162.496 128.047C162.496 128.048 162.495 128.049 162.495 128.05L157.585 139.501C157.571 139.535 157.555 139.567 157.537 139.599C155.354 143.503 154.022 147.805 153.641 152.255L153.541 176.956L156.889 177.019C156.889 177.009 156.889 176.999 156.889 176.988C156.889 168.406 163.852 161.462 172.457 161.462C181.061 161.462 188.024 168.406 188.024 176.988C188.024 177.105 188.022 177.222 188.019 177.339L223.964 177.778C223.949 177.517 223.94 177.254 223.94 176.988C223.94 168.406 230.903 161.462 239.507 161.462C248.112 161.462 255.075 168.406 255.075 176.988C255.075 177.36 255.062 177.726 255.036 178.089L268.251 178.222V152.416C268.251 152.41 268.251 152.403 268.251 152.396C268.327 148.588 267.821 144.769 266.855 141.04C266.855 141.039 266.855 141.039 266.855 141.038L264.413 131.789L264.412 131.785C263.56 128.503 260.751 126.108 257.354 125.739C246.483 124.577 233.293 123.905 217.885 123.905Z" fill="#355B3E"/>
<path d="M239.559 188.885C232.984 188.885 227.63 183.546 227.63 176.988C227.63 170.431 232.984 165.091 239.559 165.091C246.134 165.091 251.488 170.431 251.488 176.988C251.488 183.546 246.134 188.885 239.559 188.885Z" fill="#65CDD5"/>
<path fill-rule="evenodd" clip-rule="evenodd" d="M239.559 166.128C233.558 166.128 228.67 171.003 228.67 176.988C228.67 182.973 233.558 187.849 239.559 187.849C245.56 187.849 250.449 182.973 250.449 176.988C250.449 171.003 245.56 166.128 239.559 166.128ZM226.591 176.988C226.591 169.858 232.41 164.054 239.559 164.054C246.709 164.054 252.528 169.858 252.528 176.988C252.528 184.119 246.709 189.922 239.559 189.922C232.41 189.922 226.591 184.119 226.591 176.988Z" fill="#355B3E"/>
<path d="M239.559 183.209C236.129 183.209 233.322 180.41 233.322 176.988C233.322 173.567 236.129 170.768 239.559 170.768C242.99 170.768 245.797 173.567 245.797 176.988C245.797 180.41 242.99 183.209 239.559 183.209Z" fill="#FDC858"/>
<path fill-rule="evenodd" clip-rule="evenodd" d="M239.559 171.804C236.703 171.804 234.362 174.139 234.362 176.988C234.362 179.837 236.703 182.172 239.559 182.172C242.416 182.172 244.757 179.837 244.757 176.988C244.757 174.139 242.416 171.804 239.559 171.804ZM232.282 176.988C232.282 172.994 235.555 169.731 239.559 169.731C243.564 169.731 246.836 172.994 246.836 176.988C246.836 180.982 243.564 184.246 239.559 184.246C235.555 184.246 232.282 180.982 232.282 176.988Z" fill="#355B3E"/>
<path d="M239.559 179.036C238.416 179.036 237.506 178.103 237.506 176.988C237.506 175.848 238.442 174.941 239.559 174.941C240.703 174.941 241.612 175.874 241.612 176.988C241.612 178.103 240.703 179.036 239.559 179.036Z" fill="#FDC858"/>
<path fill-rule="evenodd" clip-rule="evenodd" d="M239.559 175.977C239.007 175.977 238.546 176.429 238.546 176.988C238.546 177.539 238.999 177.999 239.559 177.999C240.12 177.999 240.573 177.539 240.573 176.988C240.573 176.438 240.12 175.977 239.559 175.977ZM236.467 176.988C236.467 175.267 237.876 173.904 239.559 173.904C241.285 173.904 242.652 175.31 242.652 176.988C242.652 178.667 241.286 180.073 239.559 180.073C237.833 180.073 236.467 178.667 236.467 176.988Z" fill="#355B3E"/>
<path d="M152.497 180.28H149.664C148.495 180.28 147.559 179.347 147.559 178.181V169.809C147.559 168.642 148.495 167.709 149.664 167.709H152.497V180.28Z" fill="white"/>
<path fill-rule="evenodd" clip-rule="evenodd" d="M149.664 168.746C149.069 168.746 148.599 169.215 148.599 169.809V178.181C148.599 178.774 149.069 179.243 149.664 179.243H151.458V168.746H149.664ZM146.52 169.809C146.52 168.07 147.921 166.672 149.664 166.672H152.497C153.071 166.672 153.537 167.136 153.537 167.709V180.28C153.537 180.853 153.071 181.317 152.497 181.317H149.664C147.921 181.317 146.52 179.92 146.52 178.181V169.809Z" fill="#355B3E"/>
<path d="M152.913 164.339H151.873C151.094 164.339 150.47 163.717 150.47 162.94V156.512C150.47 155.734 151.094 155.112 151.873 155.112H152.913C153.693 155.112 154.316 155.734 154.316 156.512V162.94C154.316 163.717 153.693 164.339 152.913 164.339Z" fill="white"/>
<path fill-rule="evenodd" clip-rule="evenodd" d="M151.873 156.149C151.668 156.149 151.51 156.307 151.51 156.512V162.94C151.51 163.145 151.668 163.303 151.873 163.303H152.913C153.119 163.303 153.277 163.145 153.277 162.94V156.512C153.277 156.307 153.119 156.149 152.913 156.149H151.873ZM149.431 156.512C149.431 155.161 150.52 154.075 151.873 154.075H152.913C154.267 154.075 155.356 155.161 155.356 156.512V162.94C155.356 164.29 154.267 165.376 152.913 165.376H151.873C150.52 165.376 149.431 164.29 149.431 162.94V156.512Z" fill="#355B3E"/>
<path d="M271.343 182.276H260.168C258.869 182.276 257.829 181.239 257.829 179.943V178.129C257.829 176.833 258.869 175.796 260.168 175.796H271.343C272.643 175.796 273.682 176.833 273.682 178.129V179.943C273.682 181.213 272.617 182.276 271.343 182.276Z" fill="white"/>
<path d="M260.324 179.762C260.324 179.114 260.87 178.569 261.52 178.569H273.656V178.129C273.656 176.833 272.617 175.796 271.317 175.796H260.142C258.843 175.796 257.803 176.833 257.803 178.129V179.943C257.803 181.239 258.843 182.276 260.142 182.276H260.324V179.762Z" fill="#D8D8D8"/>
<path fill-rule="evenodd" clip-rule="evenodd" d="M260.168 176.833C259.443 176.833 258.869 177.405 258.869 178.129V179.943C258.869 180.667 259.443 181.239 260.168 181.239H271.343C272.043 181.239 272.643 180.641 272.643 179.943V178.129C272.643 177.405 272.069 176.833 271.343 176.833H260.168ZM256.79 178.129C256.79 176.26 258.295 174.759 260.168 174.759H271.343C273.217 174.759 274.722 176.26 274.722 178.129V179.943C274.722 181.786 273.191 183.313 271.343 183.313H260.168C258.295 183.313 256.79 181.812 256.79 179.943V178.129Z" fill="#355B3E"/>
<path d="M252.424 146.792H240.391C239.014 146.792 237.896 145.677 237.896 144.303V132.199C237.896 130.825 239.014 129.711 240.391 129.711H247.694C250.578 129.711 253.021 131.81 253.463 134.661L254.867 143.915C255.127 145.444 253.957 146.792 252.424 146.792Z" fill="#FDC858"/>
<path opacity="0.56" d="M242.99 135.18C242.99 133.806 244.107 132.691 245.485 132.691H252.788C251.774 130.903 249.851 129.737 247.694 129.737H240.391C239.014 129.737 237.896 130.851 237.896 132.225V144.329C237.896 145.703 239.014 146.818 240.391 146.818H242.99V135.18Z" fill="#FDC858"/>
<path fill-rule="evenodd" clip-rule="evenodd" d="M240.391 130.747C239.588 130.747 238.936 131.398 238.936 132.199V144.304C238.936 145.105 239.588 145.755 240.391 145.755H252.424C253.323 145.755 253.992 144.975 253.842 144.088C253.841 144.082 253.84 144.076 253.839 144.07L252.436 134.82C252.436 134.819 252.436 134.819 252.436 134.818C252.071 132.47 250.062 130.747 247.694 130.747H240.391ZM236.856 132.199C236.856 130.253 238.439 128.674 240.391 128.674H247.694C251.095 128.674 253.971 131.15 254.491 134.503L254.491 134.506L255.893 143.751C256.256 145.919 254.587 147.829 252.424 147.829H240.391C238.439 147.829 236.856 146.25 236.856 144.304V132.199Z" fill="#355B3E"/>
<path d="M229.892 146.533H203.331C201.954 146.533 200.836 145.418 200.836 144.044V131.94C200.836 130.566 201.954 129.452 203.331 129.452H229.892C231.269 129.452 232.386 130.566 232.386 131.94V144.044C232.36 145.418 231.269 146.533 229.892 146.533Z" fill="#FDC858"/>
<path opacity="0.56" d="M205.644 134.61C205.644 133.236 206.762 132.121 208.139 132.121H232.36V131.94C232.36 130.566 231.243 129.452 229.866 129.452H203.331C201.954 129.452 200.836 130.566 200.836 131.94V144.044C200.836 145.418 201.954 146.533 203.331 146.533H205.67V134.61H205.644Z" fill="#FDC858"/>
<path fill-rule="evenodd" clip-rule="evenodd" d="M203.331 130.488C202.528 130.488 201.876 131.139 201.876 131.94V144.044C201.876 144.845 202.528 145.496 203.331 145.496H229.892C230.675 145.496 231.327 144.863 231.347 144.033V131.94C231.347 131.139 230.695 130.488 229.892 130.488H203.331ZM199.797 131.94C199.797 129.993 201.38 128.415 203.331 128.415H229.892C231.843 128.415 233.426 129.993 233.426 131.94V144.044C233.426 144.051 233.426 144.057 233.426 144.064C233.39 145.977 231.861 147.569 229.892 147.569H203.331C201.38 147.569 199.797 145.991 199.797 144.044V131.94Z" fill="#355B3E"/>
<path d="M188.751 146.792H163.724C162.321 146.792 161.307 145.237 161.697 143.656L164.582 131.551C164.842 130.488 165.673 129.737 166.609 129.737H188.751C189.921 129.737 190.857 130.851 190.857 132.225V144.329C190.883 145.677 189.921 146.792 188.751 146.792Z" fill="#FDC858"/>
<path opacity="0.56" d="M166.375 146.196L169.26 134.091C169.52 133.028 170.351 132.277 171.287 132.277H190.856V132.199C190.856 130.825 189.921 129.711 188.751 129.711H166.609C165.673 129.711 164.842 130.462 164.582 131.525L161.697 143.63C161.333 145.211 162.321 146.766 163.724 146.766H166.297C166.323 146.584 166.349 146.403 166.375 146.196Z" fill="#FDC858"/>
<path fill-rule="evenodd" clip-rule="evenodd" d="M165.592 131.794L162.709 143.895L162.707 143.903C162.427 145.036 163.192 145.755 163.724 145.755H188.751C189.208 145.755 189.835 145.256 189.817 144.349C189.817 144.343 189.817 144.336 189.817 144.329V132.225C189.817 131.249 189.186 130.773 188.751 130.773H166.609C166.266 130.773 165.769 131.078 165.592 131.794ZM163.572 131.305C163.916 129.898 165.081 128.7 166.609 128.7H188.751C190.656 128.7 191.896 130.453 191.896 132.225V144.32C191.925 146.105 190.63 147.829 188.751 147.829H163.724C161.451 147.829 160.189 145.441 160.687 143.412L163.571 131.311L163.572 131.305Z" fill="#355B3E"/>
<path opacity="0.48" fill-rule="evenodd" clip-rule="evenodd" d="M191.064 124.086C191.064 123.943 191.181 123.827 191.324 123.827C194.431 123.827 196.938 126.328 196.938 129.426V178.466C196.938 178.609 196.822 178.725 196.678 178.725C196.534 178.725 196.418 178.609 196.418 178.466V129.426C196.418 126.614 194.144 124.345 191.324 124.345C191.181 124.345 191.064 124.229 191.064 124.086Z" fill="#355B3E"/>
<path fill-rule="evenodd" clip-rule="evenodd" d="M183.372 153.013C183.372 152.44 183.837 151.976 184.411 151.976H192.208C192.782 151.976 193.247 152.44 193.247 153.013C193.247 153.585 192.782 154.049 192.208 154.049H184.411C183.837 154.049 183.372 153.585 183.372 153.013Z" fill="#355B3E"/>
<path fill-rule="evenodd" clip-rule="evenodd" d="M223.836 152.416C223.836 151.844 224.302 151.38 224.876 151.38H231.529C232.103 151.38 232.568 151.844 232.568 152.416C232.568 152.989 232.103 153.453 231.529 153.453H224.876C224.302 153.453 223.836 152.989 223.836 152.416Z" fill="#355B3E"/>
<path d="M270.044 170.431H269.031V145.677H270.044C271.759 145.677 273.163 147.077 273.163 148.788V167.32C273.163 169.031 271.759 170.431 270.044 170.431Z" fill="#D8D8D8"/>
<path fill-rule="evenodd" clip-rule="evenodd" d="M267.991 145.677C267.991 145.105 268.456 144.64 269.031 144.64H270.044C272.333 144.64 274.202 146.504 274.202 148.788V167.32C274.202 169.604 272.333 171.467 270.044 171.467H269.031C268.456 171.467 267.991 171.003 267.991 170.431V145.677ZM270.07 146.714V169.394C271.199 169.38 272.123 168.45 272.123 167.32V148.788C272.123 147.658 271.199 146.728 270.07 146.714Z" fill="#355B3E"/>
<path fill-rule="evenodd" clip-rule="evenodd" d="M256.79 132.329C256.79 131.756 257.255 131.292 257.829 131.292H260.974C261.548 131.292 262.014 131.756 262.014 132.329C262.014 132.901 261.548 133.365 260.974 133.365H257.829C257.255 133.365 256.79 132.901 256.79 132.329Z" fill="#355B3E"/>
<path fill-rule="evenodd" clip-rule="evenodd" d="M258.089 136.787C258.089 136.214 258.555 135.75 259.129 135.75H262.273C262.848 135.75 263.313 136.214 263.313 136.787C263.313 137.359 262.848 137.824 262.273 137.824H259.129C258.555 137.824 258.089 137.359 258.089 136.787Z" fill="#355B3E"/>
<path fill-rule="evenodd" clip-rule="evenodd" d="M259.311 141.219C259.311 140.646 259.776 140.182 260.35 140.182H263.495C264.069 140.182 264.535 140.646 264.535 141.219C264.535 141.792 264.069 142.256 263.495 142.256H260.35C259.776 142.256 259.311 141.792 259.311 141.219Z" fill="#355B3E"/>
<path fill-rule="evenodd" clip-rule="evenodd" d="M259.831 145.677C259.831 145.105 260.296 144.64 260.87 144.64H264.041C264.615 144.64 265.08 145.105 265.08 145.677C265.08 146.25 264.615 146.714 264.041 146.714H260.87C260.296 146.714 259.831 146.25 259.831 145.677Z" fill="#355B3E"/>
<path d="M222.875 180.073H189.271C187.868 180.073 186.75 178.958 186.75 177.559C186.75 176.159 187.868 175.044 189.271 175.044H222.875C224.278 175.044 225.395 176.159 225.395 177.559C225.395 178.932 224.278 180.073 222.875 180.073Z" fill="white"/>
<path d="M222.875 180.073H189.271C187.868 180.073 186.75 178.958 186.75 177.559C186.75 176.159 187.868 175.044 189.271 175.044H222.875C224.278 175.044 225.395 176.159 225.395 177.559C225.395 178.932 224.278 180.073 222.875 180.073Z" fill="white"/>
<path d="M225.395 175.044H186.75V177.559H225.395V175.044Z" fill="#D8D8D8"/>
<path fill-rule="evenodd" clip-rule="evenodd" d="M189.271 176.081C188.442 176.081 187.79 176.731 187.79 177.559C187.79 178.386 188.442 179.036 189.271 179.036H222.875C223.697 179.036 224.356 178.367 224.356 177.559C224.356 176.731 223.704 176.081 222.875 176.081H189.271ZM185.711 177.559C185.711 175.586 187.294 174.008 189.271 174.008H222.875C224.852 174.008 226.435 175.586 226.435 177.559C226.435 179.498 224.859 181.11 222.875 181.11H189.271C187.294 181.11 185.711 179.531 185.711 177.559Z" fill="#355B3E"/>
<path fill-rule="evenodd" clip-rule="evenodd" d="M174.122 134.89C174.326 135.092 174.327 135.42 174.124 135.623L169.031 140.729C168.828 140.932 168.499 140.933 168.296 140.731C168.092 140.529 168.091 140.201 168.294 139.998L173.387 134.892C173.59 134.689 173.919 134.688 174.122 134.89Z" fill="#355B3E"/>
<path fill-rule="evenodd" clip-rule="evenodd" d="M180.203 133.568C180.407 133.769 180.408 134.098 180.206 134.301L173.345 141.195C173.143 141.399 172.814 141.4 172.61 141.198C172.406 140.997 172.405 140.668 172.607 140.465L179.468 133.57C179.671 133.367 180 133.366 180.203 133.568Z" fill="#355B3E"/>
<path fill-rule="evenodd" clip-rule="evenodd" d="M213.675 134.266C213.88 134.467 213.882 134.795 213.681 134.999L208.613 140.131C208.412 140.335 208.083 140.338 207.878 140.137C207.674 139.936 207.671 139.608 207.873 139.404L212.94 134.272C213.142 134.068 213.471 134.065 213.675 134.266Z" fill="#355B3E"/>
<path fill-rule="evenodd" clip-rule="evenodd" d="M219.784 132.972C219.988 133.173 219.989 133.501 219.787 133.705L212.926 140.599C212.724 140.802 212.395 140.804 212.191 140.602C211.987 140.4 211.986 140.072 212.188 139.869L219.049 132.974C219.251 132.771 219.58 132.77 219.784 132.972Z" fill="#355B3E"/>
<path fill-rule="evenodd" clip-rule="evenodd" d="M245.746 135.666C245.95 135.867 245.952 136.196 245.751 136.399L241.566 140.624C241.365 140.828 241.036 140.83 240.831 140.629C240.627 140.428 240.625 140.099 240.827 139.896L245.011 135.671C245.213 135.467 245.542 135.465 245.746 135.666Z" fill="#355B3E"/>
<path fill-rule="evenodd" clip-rule="evenodd" d="M250.762 134.577C250.966 134.778 250.968 135.107 250.767 135.311L245.127 141.013C244.926 141.217 244.596 141.219 244.392 141.018C244.188 140.817 244.185 140.489 244.387 140.285L250.027 134.582C250.228 134.379 250.557 134.376 250.762 134.577Z" fill="#355B3E"/>
<path d="M283.922 153.946L305.389 103.247C305.856 102.158 307.416 102.158 307.884 103.247L329.35 153.946C331.923 160.011 326.44 166.361 318.643 166.361H294.629C286.833 166.361 281.349 160.011 283.922 153.946Z" fill="#FDC858"/>
<path d="M283.922 153.946L305.389 103.247C305.856 102.158 307.416 102.158 307.884 103.247L329.35 153.946C331.923 160.011 326.44 166.361 318.643 166.361H294.629C286.833 166.361 281.349 160.011 283.922 153.946Z" fill="#FDC858"/>
<path opacity="0.56" d="M294.421 156.33L309.729 107.575L307.91 103.247C307.442 102.158 305.883 102.158 305.415 103.247L283.948 153.946C281.375 160.011 286.859 166.361 294.655 166.361H296.475C294.188 164.443 293.304 161.255 294.421 156.33Z" fill="#FDC858"/>
<path fill-rule="evenodd" clip-rule="evenodd" d="M306.636 111.541C307.21 111.541 307.676 112.005 307.676 112.578V188.886C307.676 189.458 307.21 189.922 306.636 189.922C306.062 189.922 305.597 189.458 305.597 188.886V112.578C305.597 112.005 306.062 111.541 306.636 111.541Z" fill="#355B3E"/>
<path fill-rule="evenodd" clip-rule="evenodd" d="M313.574 122.49C313.97 122.904 313.954 123.56 313.539 123.955L307.354 129.839C306.951 130.222 306.318 130.221 305.917 129.838L299.758 123.954C299.343 123.558 299.329 122.901 299.726 122.488C300.123 122.074 300.781 122.06 301.196 122.456L306.638 127.655L312.104 122.455C312.519 122.06 313.177 122.075 313.574 122.49Z" fill="#355B3E"/>
<path fill-rule="evenodd" clip-rule="evenodd" d="M298.531 133.685C298.928 133.272 299.586 133.257 300 133.653L306.636 139.991L313.272 133.653C313.687 133.257 314.345 133.272 314.742 133.685C315.139 134.099 315.125 134.755 314.71 135.151L307.355 142.175C306.953 142.559 306.319 142.559 305.917 142.175L298.562 135.151C298.148 134.755 298.133 134.099 298.531 133.685Z" fill="#355B3E"/>
<path fill-rule="evenodd" clip-rule="evenodd" d="M293.556 146.51C293.913 146.061 294.567 145.987 295.016 146.343L306.636 155.55L318.256 146.343C318.706 145.987 319.36 146.061 319.717 146.51C320.074 146.958 319.999 147.61 319.55 147.966L307.283 157.686C306.904 157.986 306.368 157.986 305.99 157.686L293.723 147.966C293.273 147.61 293.198 146.958 293.556 146.51Z" fill="#355B3E"/>
<path fill-rule="evenodd" clip-rule="evenodd" d="M230.768 35.4851C231.174 35.0802 231.832 35.0802 232.238 35.4851L234.621 37.8623L237.005 35.4851C237.411 35.0802 238.069 35.0802 238.475 35.4851C238.881 35.89 238.881 36.5464 238.475 36.9513L235.357 40.0617C234.951 40.4666 234.292 40.4666 233.886 40.0617L230.768 36.9513C230.362 36.5464 230.362 35.89 230.768 35.4851Z" fill="#007549"/>
<path fill-rule="evenodd" clip-rule="evenodd" d="M253.947 39.5316C254.351 39.1251 255.009 39.1223 255.417 39.5255L257.826 41.9089L260.213 39.5286C260.619 39.1237 261.277 39.1237 261.683 39.5286C262.089 39.9335 262.089 40.5899 261.683 40.9948L258.565 44.1052C258.16 44.5089 257.504 44.5103 257.097 44.1082L253.953 40.9979C253.545 40.5947 253.542 39.9382 253.947 39.5316Z" fill="#007549"/>
<path fill-rule="evenodd" clip-rule="evenodd" d="M303.38 56.2468C303.786 55.8419 304.444 55.8419 304.85 56.2468L307.237 58.6271L309.646 56.2438C310.054 55.8406 310.712 55.8433 311.117 56.2499C311.521 56.6564 311.518 57.3129 311.111 57.7161L307.966 60.8265C307.559 61.2285 306.904 61.2271 306.499 60.8234L303.38 57.7131C302.974 57.3082 302.974 56.6517 303.38 56.2468Z" fill="#007549"/>
<path fill-rule="evenodd" clip-rule="evenodd" d="M206.814 188.885C206.814 188.313 207.279 187.849 207.853 187.849H280.102C280.676 187.849 281.141 188.313 281.141 188.885C281.141 189.458 280.676 189.922 280.102 189.922H207.853C207.279 189.922 206.814 189.458 206.814 188.885Z" fill="#355B3E"/>
<path fill-rule="evenodd" clip-rule="evenodd" d="M199.017 188.885C199.017 188.313 199.482 187.849 200.057 187.849H208.815C209.389 187.849 209.854 188.313 209.854 188.885C209.854 189.458 209.389 189.922 208.815 189.922H200.057C199.482 189.922 199.017 189.458 199.017 188.885Z" fill="#355B3E"/>
</svg>
