<svg width="746" height="714" viewBox="0 0 746 714" fill="none" xmlns="http://www.w3.org/2000/svg">
<rect width="746" height="714" fill="#F5DBC4"/>
<g clip-path="url(#clip0_1_100)">
<path d="M221.362 370.885C208.311 357.68 200.288 339.51 200.288 319.535C200.288 279.132 233.113 246.347 273.565 246.347C314.017 246.347 346.898 279.076 346.898 319.478L290.458 276.593L221.362 370.885Z" fill="#FDC858"/>
<path fill-rule="evenodd" clip-rule="evenodd" d="M273.621 224.566C274.87 224.566 275.881 225.576 275.881 226.823V234.723C275.881 235.969 274.87 236.98 273.621 236.98C272.373 236.98 271.362 235.969 271.362 234.723V226.823C271.362 225.576 272.373 224.566 273.621 224.566Z" fill="#007549"/>
<path fill-rule="evenodd" clip-rule="evenodd" d="M273.621 209.894C274.87 209.894 275.881 210.905 275.881 212.151V220.39C275.881 221.637 274.87 222.647 273.621 222.647C272.373 222.647 271.362 221.637 271.362 220.39V212.151C271.362 210.905 272.373 209.894 273.621 209.894Z" fill="#007549"/>
<path fill-rule="evenodd" clip-rule="evenodd" d="M273.621 191.781C274.87 191.781 275.881 192.791 275.881 194.038V204.816C275.881 206.062 274.87 207.073 273.621 207.073C272.373 207.073 271.362 206.062 271.362 204.816V194.038C271.362 192.791 272.373 191.781 273.621 191.781Z" fill="#007549"/>
<path fill-rule="evenodd" clip-rule="evenodd" d="M257.057 226.014C258.285 225.79 259.462 226.603 259.686 227.829L261.099 235.56C261.323 236.786 260.509 237.961 259.281 238.185C258.053 238.409 256.876 237.596 256.652 236.37L255.24 228.639C255.016 227.413 255.83 226.237 257.057 226.014Z" fill="#007549"/>
<path fill-rule="evenodd" clip-rule="evenodd" d="M254.519 211.567C255.748 211.345 256.923 212.16 257.145 213.387L258.614 221.512C258.836 222.739 258.02 223.913 256.791 224.135C255.563 224.356 254.388 223.541 254.166 222.315L252.697 214.189C252.475 212.962 253.291 211.788 254.519 211.567Z" fill="#007549"/>
<path fill-rule="evenodd" clip-rule="evenodd" d="M251.355 193.736C252.583 193.514 253.759 194.329 253.981 195.555L255.902 206.164C256.124 207.391 255.308 208.565 254.08 208.787C252.852 209.008 251.676 208.194 251.454 206.967L249.533 196.359C249.311 195.132 250.127 193.958 251.355 193.736Z" fill="#007549"/>
<path fill-rule="evenodd" clip-rule="evenodd" d="M241.093 230.29C242.265 229.861 243.563 230.462 243.992 231.633L246.704 239.025C247.133 240.195 246.531 241.492 245.359 241.921C244.188 242.35 242.889 241.748 242.46 240.578L239.748 233.186C239.319 232.015 239.921 230.719 241.093 230.29Z" fill="#007549"/>
<path fill-rule="evenodd" clip-rule="evenodd" d="M236.067 216.521C237.239 216.093 238.537 216.696 238.965 217.867L241.79 225.598C242.217 226.769 241.614 228.065 240.441 228.492C239.269 228.92 237.972 228.317 237.544 227.146L234.719 219.415C234.291 218.244 234.895 216.948 236.067 216.521Z" fill="#007549"/>
<path fill-rule="evenodd" clip-rule="evenodd" d="M229.849 199.481C231.021 199.052 232.319 199.652 232.749 200.823L236.478 210.98C236.907 212.15 236.306 213.447 235.134 213.876C233.962 214.305 232.664 213.704 232.234 212.534L228.505 202.377C228.076 201.206 228.677 199.91 229.849 199.481Z" fill="#007549"/>
<path fill-rule="evenodd" clip-rule="evenodd" d="M226.049 237.283C227.129 236.659 228.512 237.028 229.137 238.107L233.092 244.935C233.717 246.014 233.347 247.394 232.267 248.019C231.187 248.643 229.804 248.274 229.179 247.195L225.225 240.367C224.6 239.288 224.969 237.908 226.049 237.283Z" fill="#007549"/>
<path fill-rule="evenodd" clip-rule="evenodd" d="M218.766 224.584C219.848 223.963 221.23 224.335 221.852 225.416L225.976 232.582C226.598 233.663 226.225 235.043 225.143 235.664C224.061 236.285 222.68 235.913 222.058 234.832L217.933 227.665C217.311 226.585 217.684 225.205 218.766 224.584Z" fill="#007549"/>
<path fill-rule="evenodd" clip-rule="evenodd" d="M209.665 208.9C210.746 208.276 212.128 208.644 212.753 209.724L218.177 219.091C218.802 220.17 218.432 221.551 217.352 222.175C216.271 222.799 214.889 222.43 214.264 221.351L208.84 211.984C208.216 210.904 208.585 209.524 209.665 208.9Z" fill="#007549"/>
<path fill-rule="evenodd" clip-rule="evenodd" d="M212.506 246.764C213.461 245.962 214.886 246.084 215.69 247.038L220.775 253.076C221.578 254.03 221.455 255.454 220.5 256.257C219.545 257.059 218.119 256.936 217.316 255.982L212.231 249.944C211.428 248.99 211.551 247.566 212.506 246.764Z" fill="#007549"/>
<path fill-rule="evenodd" clip-rule="evenodd" d="M203.073 235.533C204.029 234.732 205.454 234.856 206.256 235.811L211.567 242.131C212.369 243.086 212.245 244.51 211.289 245.311C210.333 246.112 208.907 245.988 208.105 245.033L202.794 238.713C201.992 237.758 202.116 236.335 203.073 235.533Z" fill="#007549"/>
<path fill-rule="evenodd" clip-rule="evenodd" d="M191.373 221.655C192.327 220.852 193.753 220.972 194.558 221.925L201.564 230.22C202.368 231.173 202.247 232.597 201.293 233.401C200.339 234.205 198.913 234.084 198.109 233.131L191.103 224.836C190.298 223.883 190.419 222.459 191.373 221.655Z" fill="#007549"/>
<path fill-rule="evenodd" clip-rule="evenodd" d="M200.811 258.503C201.609 257.545 203.034 257.414 203.993 258.212L210.038 263.234C210.998 264.031 211.129 265.454 210.331 266.412C209.533 267.371 208.108 267.501 207.148 266.704L201.103 261.682C200.143 260.885 200.012 259.462 200.811 258.503Z" fill="#007549"/>
<path fill-rule="evenodd" clip-rule="evenodd" d="M189.581 249.065C190.387 248.113 191.813 247.995 192.766 248.801L199.037 254.105C199.989 254.911 200.107 256.335 199.301 257.286C198.494 258.238 197.068 258.356 196.116 257.55L189.845 252.246C188.892 251.44 188.774 250.016 189.581 249.065Z" fill="#007549"/>
<path fill-rule="evenodd" clip-rule="evenodd" d="M175.617 237.394C176.418 236.438 177.843 236.312 178.8 237.112L187.106 244.052C188.063 244.852 188.189 246.276 187.389 247.232C186.588 248.188 185.162 248.314 184.205 247.514L175.9 240.574C174.943 239.774 174.816 238.35 175.617 237.394Z" fill="#007549"/>
<path fill-rule="evenodd" clip-rule="evenodd" d="M191.27 272.02C191.895 270.941 193.277 270.572 194.358 271.196L201.194 275.146C202.274 275.77 202.643 277.151 202.018 278.23C201.393 279.309 200.011 279.678 198.931 279.054L192.094 275.104C191.014 274.48 190.645 273.099 191.27 272.02Z" fill="#007549"/>
<path fill-rule="evenodd" clip-rule="evenodd" d="M178.555 264.689C179.177 263.609 180.558 263.236 181.64 263.857L188.816 267.977C189.898 268.598 190.271 269.978 189.649 271.058C189.027 272.139 187.645 272.512 186.563 271.89L179.388 267.771C178.306 267.15 177.933 265.77 178.555 264.689Z" fill="#007549"/>
<path fill-rule="evenodd" clip-rule="evenodd" d="M162.852 255.6C163.476 254.521 164.859 254.152 165.939 254.776L175.318 260.193C176.398 260.817 176.768 262.198 176.143 263.277C175.518 264.356 174.135 264.725 173.055 264.101L163.677 258.684C162.596 258.06 162.227 256.679 162.852 255.6Z" fill="#007549"/>
<path fill-rule="evenodd" clip-rule="evenodd" d="M184.261 287.065C184.68 285.89 185.972 285.277 187.148 285.696L194.606 288.348C195.781 288.766 196.395 290.057 195.976 291.231C195.558 292.406 194.265 293.019 193.089 292.6L185.632 289.948C184.456 289.53 183.842 288.239 184.261 287.065Z" fill="#007549"/>
<path fill-rule="evenodd" clip-rule="evenodd" d="M170.48 282.031C170.905 280.859 172.201 280.253 173.374 280.678L181.171 283.499C182.344 283.924 182.951 285.218 182.526 286.39C182.101 287.562 180.805 288.168 179.631 287.743L171.835 284.922C170.661 284.497 170.055 283.203 170.48 282.031Z" fill="#007549"/>
<path fill-rule="evenodd" clip-rule="evenodd" d="M153.417 275.826C153.841 274.654 155.136 274.046 156.31 274.47L166.48 278.138C167.653 278.561 168.261 279.855 167.838 281.027C167.414 282.2 166.118 282.807 164.944 282.384L154.775 278.716C153.601 278.292 152.993 276.999 153.417 275.826Z" fill="#007549"/>
<path fill-rule="evenodd" clip-rule="evenodd" d="M179.983 303.009C180.196 301.781 181.367 300.959 182.596 301.172L190.393 302.527C191.622 302.74 192.446 303.909 192.232 305.137C192.018 306.365 190.848 307.188 189.618 306.974L181.822 305.62C180.592 305.406 179.769 304.238 179.983 303.009Z" fill="#007549"/>
<path fill-rule="evenodd" clip-rule="evenodd" d="M165.576 300.468C165.791 299.24 166.962 298.419 168.191 298.634L176.271 300.044C177.5 300.259 178.322 301.428 178.107 302.656C177.893 303.884 176.722 304.706 175.492 304.491L167.413 303.08C166.184 302.866 165.361 301.696 165.576 300.468Z" fill="#007549"/>
<path fill-rule="evenodd" clip-rule="evenodd" d="M147.666 297.309C147.881 296.081 149.052 295.259 150.281 295.473L160.959 297.336C162.189 297.55 163.011 298.719 162.797 299.947C162.582 301.175 161.411 301.997 160.182 301.783L149.504 299.92C148.274 299.706 147.452 298.537 147.666 297.309Z" fill="#007549"/>
<path fill-rule="evenodd" clip-rule="evenodd" d="M178.537 319.478C178.537 318.232 179.548 317.221 180.797 317.221H188.706C189.954 317.221 190.966 318.232 190.966 319.478C190.966 320.725 189.954 321.735 188.706 321.735H180.797C179.548 321.735 178.537 320.725 178.537 319.478Z" fill="#007549"/>
<path fill-rule="evenodd" clip-rule="evenodd" d="M163.904 319.478C163.904 318.232 164.916 317.221 166.164 317.221H174.413C175.661 317.221 176.672 318.232 176.672 319.478C176.672 320.725 175.661 321.735 174.413 321.735H166.164C164.916 321.735 163.904 320.725 163.904 319.478Z" fill="#007549"/>
<path fill-rule="evenodd" clip-rule="evenodd" d="M145.712 319.478C145.712 318.232 146.724 317.221 147.972 317.221H158.819C160.067 317.221 161.079 318.232 161.079 319.478C161.079 320.725 160.067 321.735 158.819 321.735H147.972C146.724 321.735 145.712 320.725 145.712 319.478Z" fill="#007549"/>
<path fill-rule="evenodd" clip-rule="evenodd" d="M192.232 333.82C192.446 335.048 191.622 336.217 190.393 336.43L182.596 337.785C181.367 337.998 180.196 337.176 179.983 335.948C179.769 334.72 180.592 333.551 181.822 333.337L189.618 331.983C190.848 331.769 192.018 332.592 192.232 333.82Z" fill="#007549"/>
<path fill-rule="evenodd" clip-rule="evenodd" d="M178.107 336.301C178.322 337.529 177.5 338.698 176.271 338.913L168.191 340.324C166.962 340.538 165.791 339.717 165.576 338.489C165.361 337.261 166.184 336.092 167.413 335.877L175.492 334.466C176.722 334.251 177.893 335.073 178.107 336.301Z" fill="#007549"/>
<path fill-rule="evenodd" clip-rule="evenodd" d="M162.797 339.01C163.011 340.238 162.189 341.407 160.959 341.622L150.281 343.484C149.052 343.698 147.881 342.877 147.666 341.649C147.452 340.421 148.274 339.251 149.504 339.037L160.182 337.175C161.411 336.96 162.582 337.782 162.797 339.01Z" fill="#007549"/>
<path fill-rule="evenodd" clip-rule="evenodd" d="M195.971 347.711C196.398 348.883 195.793 350.178 194.62 350.604L187.162 353.312C185.989 353.738 184.693 353.134 184.266 351.962C183.84 350.791 184.445 349.496 185.618 349.07L193.075 346.361C194.248 345.935 195.545 346.54 195.971 347.711Z" fill="#007549"/>
<path fill-rule="evenodd" clip-rule="evenodd" d="M182.526 352.624C182.951 353.796 182.344 355.09 181.171 355.515L173.374 358.336C172.201 358.761 170.905 358.155 170.48 356.983C170.055 355.811 170.661 354.516 171.835 354.092L179.631 351.27C180.805 350.846 182.101 351.451 182.526 352.624Z" fill="#007549"/>
<path fill-rule="evenodd" clip-rule="evenodd" d="M167.834 357.919C168.263 359.089 167.662 360.386 166.49 360.815L156.32 364.54C155.149 364.969 153.85 364.368 153.421 363.197C152.991 362.027 153.593 360.73 154.765 360.301L164.934 356.577C166.106 356.148 167.404 356.749 167.834 357.919Z" fill="#007549"/>
<path fill-rule="evenodd" clip-rule="evenodd" d="M202.018 360.726C202.643 361.805 202.274 363.186 201.194 363.81L194.358 367.76C193.277 368.385 191.895 368.016 191.27 366.937C190.645 365.858 191.014 364.477 192.094 363.853L198.931 359.903C200.011 359.279 201.393 359.647 202.018 360.726Z" fill="#007549"/>
<path fill-rule="evenodd" clip-rule="evenodd" d="M189.649 367.898C190.271 368.979 189.898 370.359 188.816 370.98L181.64 375.099C180.558 375.72 179.177 375.348 178.555 374.267C177.933 373.186 178.306 371.807 179.388 371.185L186.563 367.066C187.645 366.445 189.027 366.817 189.649 367.898Z" fill="#007549"/>
<path fill-rule="evenodd" clip-rule="evenodd" d="M176.143 375.68C176.768 376.759 176.398 378.14 175.318 378.764L165.939 384.181C164.859 384.805 163.476 384.436 162.852 383.357C162.227 382.278 162.596 380.897 163.677 380.273L173.055 374.856C174.135 374.232 175.518 374.601 176.143 375.68Z" fill="#007549"/>
<path fill-rule="evenodd" clip-rule="evenodd" d="M362.925 287.065C363.344 288.239 362.73 289.53 361.555 289.948L354.097 292.6C352.921 293.019 351.629 292.406 351.21 291.231C350.791 290.057 351.405 288.766 352.581 288.348L360.038 285.696C361.214 285.277 362.507 285.89 362.925 287.065Z" fill="#007549"/>
<path fill-rule="evenodd" clip-rule="evenodd" d="M376.707 282.031C377.132 283.203 376.525 284.497 375.352 284.922L367.555 287.743C366.382 288.168 365.086 287.562 364.661 286.39C364.236 285.218 364.842 283.924 366.016 283.499L373.812 280.678C374.986 280.253 376.282 280.859 376.707 282.031Z" fill="#007549"/>
<path fill-rule="evenodd" clip-rule="evenodd" d="M355.917 272.02C356.542 273.099 356.172 274.48 355.092 275.104L348.256 279.054C347.176 279.678 345.793 279.309 345.168 278.23C344.543 277.151 344.912 275.77 345.993 275.146L352.829 271.196C353.909 270.572 355.292 270.941 355.917 272.02Z" fill="#007549"/>
<path fill-rule="evenodd" clip-rule="evenodd" d="M368.631 264.689C369.253 265.77 368.88 267.15 367.798 267.771L360.623 271.89C359.541 272.512 358.16 272.139 357.538 271.058C356.916 269.978 357.289 268.598 358.371 267.977L365.546 263.857C366.628 263.236 368.01 263.609 368.631 264.689Z" fill="#007549"/>
<path fill-rule="evenodd" clip-rule="evenodd" d="M384.335 255.6C384.96 256.679 384.59 258.06 383.51 258.684L374.131 264.101C373.051 264.725 371.669 264.356 371.044 263.277C370.419 262.198 370.788 260.817 371.869 260.193L381.247 254.776C382.328 254.152 383.71 254.521 384.335 255.6Z" fill="#007549"/>
<path fill-rule="evenodd" clip-rule="evenodd" d="M346.369 258.495C347.172 259.45 347.048 260.874 346.092 261.675L340.103 266.698C339.147 267.499 337.722 267.375 336.919 266.42C336.117 265.466 336.241 264.042 337.197 263.24L343.185 258.218C344.141 257.417 345.567 257.541 346.369 258.495Z" fill="#007549"/>
<path fill-rule="evenodd" clip-rule="evenodd" d="M357.606 249.065C358.413 250.016 358.294 251.44 357.342 252.246L351.071 257.55C350.118 258.356 348.692 258.238 347.886 257.286C347.079 256.335 347.197 254.911 348.15 254.105L354.421 248.801C355.373 247.995 356.799 248.113 357.606 249.065Z" fill="#007549"/>
<path fill-rule="evenodd" clip-rule="evenodd" d="M371.569 237.394C372.37 238.35 372.244 239.774 371.286 240.574L362.981 247.514C362.024 248.314 360.599 248.188 359.798 247.232C358.997 246.276 359.124 244.852 360.081 244.052L368.386 237.112C369.343 236.312 370.769 236.438 371.569 237.394Z" fill="#007549"/>
<path fill-rule="evenodd" clip-rule="evenodd" d="M334.681 246.764C335.636 247.566 335.759 248.99 334.955 249.944L329.871 255.982C329.067 256.936 327.642 257.059 326.687 256.257C325.731 255.454 325.608 254.03 326.412 253.076L331.497 247.038C332.3 246.084 333.726 245.962 334.681 246.764Z" fill="#007549"/>
<path fill-rule="evenodd" clip-rule="evenodd" d="M344.114 235.533C345.07 236.335 345.194 237.758 344.392 238.713L339.081 245.033C338.279 245.988 336.853 246.112 335.897 245.311C334.941 244.51 334.817 243.086 335.619 242.131L340.93 235.811C341.732 234.856 343.158 234.732 344.114 235.533Z" fill="#007549"/>
<path fill-rule="evenodd" clip-rule="evenodd" d="M355.806 221.65C356.763 222.45 356.89 223.873 356.089 224.829L349.14 233.124C348.339 234.08 346.914 234.207 345.957 233.407C344.999 232.607 344.873 231.183 345.674 230.227L352.623 221.932C353.424 220.976 354.849 220.85 355.806 221.65Z" fill="#007549"/>
<path fill-rule="evenodd" clip-rule="evenodd" d="M321.137 237.283C322.218 237.908 322.587 239.288 321.962 240.367L318.007 247.195C317.382 248.274 315.999 248.643 314.919 248.019C313.839 247.394 313.47 246.014 314.095 244.935L318.049 238.107C318.674 237.028 320.057 236.659 321.137 237.283Z" fill="#007549"/>
<path fill-rule="evenodd" clip-rule="evenodd" d="M328.42 224.584C329.502 225.205 329.875 226.585 329.253 227.665L325.129 234.832C324.507 235.913 323.125 236.285 322.043 235.664C320.961 235.043 320.588 233.663 321.21 232.582L325.334 225.416C325.956 224.335 327.338 223.963 328.42 224.584Z" fill="#007549"/>
<path fill-rule="evenodd" clip-rule="evenodd" d="M337.521 208.9C338.602 209.524 338.971 210.904 338.346 211.984L332.922 221.351C332.298 222.43 330.915 222.799 329.835 222.175C328.754 221.551 328.385 220.17 329.01 219.091L334.434 209.724C335.058 208.644 336.441 208.276 337.521 208.9Z" fill="#007549"/>
<path fill-rule="evenodd" clip-rule="evenodd" d="M306.094 230.29C307.266 230.719 307.868 232.015 307.438 233.186L304.726 240.578C304.297 241.748 302.999 242.35 301.827 241.921C300.655 241.492 300.053 240.195 300.483 239.025L303.194 231.633C303.624 230.462 304.922 229.861 306.094 230.29Z" fill="#007549"/>
<path fill-rule="evenodd" clip-rule="evenodd" d="M311.12 216.521C312.292 216.948 312.896 218.244 312.468 219.415L309.643 227.146C309.215 228.317 307.918 228.92 306.745 228.492C305.573 228.065 304.969 226.769 305.397 225.598L308.222 217.867C308.65 216.696 309.947 216.093 311.12 216.521Z" fill="#007549"/>
<path fill-rule="evenodd" clip-rule="evenodd" d="M317.337 199.481C318.509 199.91 319.111 201.206 318.681 202.377L314.952 212.534C314.523 213.704 313.224 214.305 312.053 213.876C310.881 213.447 310.279 212.15 310.709 210.98L314.438 200.823C314.867 199.652 316.166 199.052 317.337 199.481Z" fill="#007549"/>
<path fill-rule="evenodd" clip-rule="evenodd" d="M290.129 226.014C291.357 226.237 292.17 227.413 291.946 228.639L290.534 236.37C290.31 237.596 289.133 238.409 287.905 238.185C286.677 237.961 285.864 236.786 286.088 235.56L287.5 227.829C287.724 226.603 288.901 225.79 290.129 226.014Z" fill="#007549"/>
<path fill-rule="evenodd" clip-rule="evenodd" d="M292.667 211.567C293.895 211.788 294.711 212.962 294.49 214.189L293.021 222.315C292.799 223.541 291.623 224.356 290.395 224.135C289.167 223.913 288.351 222.739 288.573 221.512L290.042 213.387C290.263 212.16 291.439 211.345 292.667 211.567Z" fill="#007549"/>
<path fill-rule="evenodd" clip-rule="evenodd" d="M295.832 193.736C297.06 193.958 297.875 195.132 297.653 196.359L295.732 206.967C295.51 208.194 294.335 209.008 293.106 208.787C291.878 208.565 291.063 207.391 291.285 206.164L293.206 195.555C293.428 194.329 294.603 193.514 295.832 193.736Z" fill="#007549"/>
<path fill-rule="evenodd" clip-rule="evenodd" d="M128.141 523.016C128.141 521.769 129.153 520.759 130.401 520.759H209.158C210.406 520.759 211.418 521.769 211.418 523.016C211.418 524.262 210.406 525.273 209.158 525.273H130.401C129.153 525.273 128.141 524.262 128.141 523.016Z" fill="#355B3E"/>
<path fill-rule="evenodd" clip-rule="evenodd" d="M216.785 523.016C216.785 521.769 217.797 520.759 219.045 520.759H331.757C333.005 520.759 334.017 521.769 334.017 523.016C334.017 524.262 333.005 525.273 331.757 525.273H219.045C217.797 525.273 216.785 524.262 216.785 523.016Z" fill="#355B3E"/>
<path fill-rule="evenodd" clip-rule="evenodd" d="M523.226 523.016C523.226 521.769 524.238 520.759 525.486 520.759H535.712C536.96 520.759 537.972 521.769 537.972 523.016C537.972 524.262 536.96 525.273 535.712 525.273H525.486C524.238 525.273 523.226 524.262 523.226 523.016Z" fill="#355B3E"/>
<path fill-rule="evenodd" clip-rule="evenodd" d="M543.282 523.016C543.282 521.769 544.294 520.759 545.542 520.759H594.469C595.717 520.759 596.729 521.769 596.729 523.016C596.729 524.262 595.717 525.273 594.469 525.273H545.542C544.294 525.273 543.282 524.262 543.282 523.016Z" fill="#355B3E"/>
<path fill-rule="evenodd" clip-rule="evenodd" d="M600.684 523.016C600.684 521.769 601.695 520.759 602.943 520.759H606.616C607.864 520.759 608.876 521.769 608.876 523.016C608.876 524.262 607.864 525.273 606.616 525.273H602.943C601.695 525.273 600.684 524.262 600.684 523.016Z" fill="#355B3E"/>
<path fill-rule="evenodd" clip-rule="evenodd" d="M290.425 274.583C291.026 274.499 291.636 274.659 292.118 275.029L354.039 322.598C355.028 323.358 355.213 324.776 354.452 325.764C353.691 326.752 352.273 326.937 351.283 326.177L291.191 280.012L181.769 428.37C181.028 429.373 179.614 429.588 178.609 428.848C177.604 428.109 177.389 426.696 178.13 425.692L288.921 275.48C289.281 274.991 289.823 274.668 290.425 274.583Z" fill="#007549"/>
<path fill-rule="evenodd" clip-rule="evenodd" d="M403.285 253.186C403.921 253.123 404.555 253.332 405.028 253.761L539.378 375.647C540.302 376.485 540.371 377.912 539.532 378.835C538.692 379.758 537.263 379.826 536.339 378.988L403.843 258.785L326.176 364.098C325.435 365.101 324.021 365.316 323.016 364.576C322.011 363.837 321.796 362.424 322.536 361.42L401.689 254.093C402.068 253.579 402.648 253.249 403.285 253.186Z" fill="#007549"/>
<path fill-rule="evenodd" clip-rule="evenodd" d="M344.512 315.271C345.559 315.949 345.858 317.347 345.178 318.393L338.399 328.832C337.811 329.737 336.666 330.1 335.663 329.7L320.147 323.501L313.816 333.131C313.255 333.985 312.191 334.356 311.22 334.037L298.928 329.995L292.73 335.747C292.098 336.333 291.187 336.509 290.381 336.2L273.86 329.858L261.291 334.837C260.357 335.207 259.291 334.917 258.674 334.125L253.137 327.015C252.371 326.031 252.548 324.613 253.533 323.847C254.519 323.082 255.938 323.259 256.705 324.243L261.2 330.017L273.014 325.337C273.542 325.128 274.129 325.125 274.658 325.328L290.687 331.481L296.829 325.781C297.432 325.222 298.292 325.034 299.074 325.291L310.988 329.208L317.382 319.481C317.972 318.584 319.113 318.225 320.11 318.624L335.618 324.819L341.386 315.936C342.066 314.891 343.465 314.593 344.512 315.271Z" fill="#007549"/>
<path fill-rule="evenodd" clip-rule="evenodd" d="M429.264 295.416C429.759 294.686 430.634 294.31 431.505 294.454L453.313 298.066C454.544 298.27 455.377 299.432 455.173 300.662C454.969 301.892 453.805 302.723 452.574 302.519L432.195 299.145L424.589 310.361C423.905 311.369 422.544 311.654 421.512 311.005L409.635 303.526L393 312.493C391.902 313.084 390.533 312.676 389.939 311.581L384.487 301.523L368.987 305.088C367.771 305.368 366.558 304.61 366.278 303.395C365.998 302.18 366.757 300.969 367.973 300.689L385.148 296.739C386.138 296.511 387.159 296.971 387.643 297.864L392.839 307.449L408.65 298.927C409.368 298.54 410.238 298.57 410.928 299.004L422.073 306.021L429.264 295.416Z" fill="#007549"/>
<path fill-rule="evenodd" clip-rule="evenodd" d="M449.328 247.983C449.328 235.338 459.549 225.13 472.209 225.13C480.741 225.13 488.245 229.848 492.151 236.804C493.336 236.551 494.566 236.416 495.825 236.416C502.523 236.416 508.375 240.235 511.216 245.826C511.703 245.761 512.205 245.726 512.718 245.726C518.994 245.726 524.13 250.856 524.13 257.125C524.13 258.695 523.776 260.234 523.219 261.556C522.866 262.393 522.045 262.937 521.136 262.937H440.684C439.942 262.937 439.248 262.573 438.825 261.964C438.403 261.355 438.307 260.578 438.569 259.885C440.409 255.003 444.381 251.239 449.396 249.662C449.353 249.109 449.328 248.549 449.328 247.983ZM472.209 229.644C462.045 229.644 453.848 237.831 453.848 247.983C453.848 248.965 453.946 249.975 454.105 251.034C454.286 252.238 453.479 253.368 452.281 253.589C449.064 254.182 446.314 255.942 444.467 258.423H519.477C519.563 257.994 519.61 257.556 519.61 257.125C519.61 253.349 516.498 250.241 512.718 250.241C511.949 250.241 511.23 250.369 510.607 250.576C509.448 250.962 508.191 250.358 507.771 249.211C506 244.384 501.299 240.93 495.825 240.93C494.382 240.93 492.984 241.17 491.681 241.604C490.582 241.97 489.385 241.447 488.907 240.393C486.041 234.065 479.598 229.644 472.209 229.644Z" fill="#007549"/>
<path fill-rule="evenodd" clip-rule="evenodd" d="M534.299 287.088C534.299 277.265 542.26 269.313 552.096 269.313C561.31 269.313 568.878 276.291 569.799 285.249C570.034 285.234 570.273 285.226 570.514 285.226C577.121 285.226 582.548 290.573 582.548 297.246V297.528C582.548 298.774 581.536 299.785 580.288 299.785H528.932C527.684 299.785 526.672 298.774 526.672 297.528V297.302C526.672 292.596 529.957 288.701 534.308 287.685C534.302 287.486 534.299 287.287 534.299 287.088ZM552.096 273.828C544.757 273.828 538.819 279.758 538.819 287.088C538.819 287.898 538.87 288.587 539.001 289.241C539.134 289.905 538.962 290.592 538.533 291.115C538.104 291.638 537.462 291.941 536.785 291.941H536.559C534.328 291.941 532.396 293.312 531.591 295.271H577.766C576.895 292.075 573.963 289.741 570.514 289.741C569.752 289.741 569.019 289.867 568.307 290.089C567.621 290.303 566.873 290.179 566.294 289.753C565.715 289.328 565.373 288.653 565.373 287.935V287.088C565.373 279.758 559.436 273.828 552.096 273.828Z" fill="#007549"/>
<path d="M280.571 523.016C266.277 523.016 254.638 511.392 254.638 497.115C254.638 482.839 266.277 471.214 280.571 471.214C294.864 471.214 306.503 482.839 306.503 497.115C306.503 511.392 294.864 523.016 280.571 523.016Z" fill="#65CDD5"/>
<path fill-rule="evenodd" clip-rule="evenodd" d="M280.571 473.472C267.525 473.472 256.898 484.085 256.898 497.115C256.898 510.145 267.525 520.759 280.571 520.759C293.616 520.759 304.243 510.145 304.243 497.115C304.243 484.085 293.616 473.472 280.571 473.472ZM252.378 497.115C252.378 481.592 265.029 468.957 280.571 468.957C296.112 468.957 308.763 481.592 308.763 497.115C308.763 512.638 296.112 525.273 280.571 525.273C265.029 525.273 252.378 512.638 252.378 497.115Z" fill="#355B3E"/>
<path d="M280.571 510.658C273.113 510.658 267.011 504.564 267.011 497.115C267.011 489.667 273.113 483.572 280.571 483.572C288.028 483.572 294.13 489.667 294.13 497.115C294.13 504.564 288.028 510.658 280.571 510.658Z" fill="#FDC858"/>
<path fill-rule="evenodd" clip-rule="evenodd" d="M280.571 485.829C274.361 485.829 269.271 490.913 269.271 497.115C269.271 503.317 274.361 508.401 280.571 508.401C286.78 508.401 291.87 503.317 291.87 497.115C291.87 490.913 286.78 485.829 280.571 485.829ZM264.751 497.115C264.751 488.42 271.865 481.315 280.571 481.315C289.276 481.315 296.39 488.42 296.39 497.115C296.39 505.81 289.276 512.915 280.571 512.915C271.865 512.915 264.751 505.81 264.751 497.115Z" fill="#355B3E"/>
<path d="M280.571 501.573C278.085 501.573 276.107 499.542 276.107 497.115C276.107 494.632 278.141 492.657 280.571 492.657C283.057 492.657 285.034 494.689 285.034 497.115C285.034 499.542 283.057 501.573 280.571 501.573Z" fill="#FDC858"/>
<path fill-rule="evenodd" clip-rule="evenodd" d="M280.571 494.914C279.371 494.914 278.367 495.897 278.367 497.115C278.367 498.314 279.351 499.316 280.571 499.316C281.79 499.316 282.774 498.314 282.774 497.115C282.774 495.917 281.79 494.914 280.571 494.914ZM273.847 497.115C273.847 493.367 276.912 490.4 280.571 490.4C284.323 490.4 287.294 493.461 287.294 497.115C287.294 500.77 284.323 503.83 280.571 503.83C276.818 503.83 273.847 500.77 273.847 497.115Z" fill="#355B3E"/>
<path d="M487.915 418.285L482.604 398.14C480.514 390.07 473.621 384.202 465.316 383.299C441.588 380.76 412.83 379.292 379.271 379.292C340.853 379.292 281.814 382.227 264.073 384.258C260.853 384.597 258.085 386.685 256.785 389.675L246.107 414.617C241.192 423.42 238.198 433.125 237.35 443.17L237.124 499.259L249.045 499.485C248.989 498.695 248.932 497.905 248.932 497.115C248.932 479.679 263.056 465.572 280.514 465.572C297.972 465.572 312.096 479.679 312.096 497.115C312.096 498.131 312.04 499.147 311.927 500.106L394.977 501.122C394.808 499.824 394.695 498.469 394.695 497.115C394.695 479.679 408.819 465.572 426.277 465.572C443.734 465.572 457.859 479.679 457.859 497.115C457.859 498.695 457.746 500.219 457.52 501.742L491.023 502.081V443.621C491.192 435.1 490.062 426.58 487.915 418.285Z" fill="#3F7539"/>
<g opacity="0.36">
<path opacity="0.36" d="M243.452 499.259L243.678 443.17C244.525 433.125 247.52 423.42 252.435 414.617L263.113 389.675C264.412 386.685 267.181 384.653 270.401 384.258C287.633 382.283 343.734 379.462 382.153 379.292C381.192 379.292 380.232 379.292 379.271 379.292C340.853 379.292 281.814 382.227 264.073 384.258C260.853 384.597 258.085 386.685 256.785 389.675L246.107 414.617C241.192 423.42 238.198 433.125 237.35 443.17L237.124 499.259L249.045 499.485C249.045 499.429 249.045 499.429 249.045 499.372L243.452 499.259Z" fill="#3F7539"/>
<path opacity="0.36" d="M463.961 501.742C464.186 500.219 464.299 498.695 464.299 497.115C464.299 479.679 450.175 465.572 432.718 465.572C431.644 465.572 430.627 465.628 429.554 465.741C445.542 467.321 457.972 480.751 457.972 497.115C457.972 498.695 457.859 500.219 457.633 501.742L491.136 502.081V502.024L463.961 501.742Z" fill="#3F7539"/>
<path opacity="0.36" d="M318.311 500.049C318.424 499.09 318.48 498.074 318.48 497.059C318.48 479.622 304.356 465.515 286.898 465.515C285.825 465.515 284.808 465.572 283.734 465.684C299.723 467.264 312.152 480.694 312.152 497.059C312.152 498.074 312.096 499.09 311.983 500.049L395.034 501.065V501.009L318.311 500.049Z" fill="#3F7539"/>
</g>
<path opacity="0.36" d="M318.424 494.971H393.904V487.466H316.955C317.746 489.892 318.198 492.375 318.424 494.971Z" fill="#3F7539"/>
<g opacity="0.25">
<path opacity="0.25" d="M489.045 417.72L483.734 397.575C481.644 389.506 474.751 383.637 466.446 382.735C442.717 380.195 413.96 378.728 380.401 378.728C341.983 378.728 282.943 381.662 265.203 383.694C262.435 384.032 259.949 385.612 258.537 387.982C258.537 387.982 258.537 387.023 258.593 387.023C276.333 384.992 335.373 383.017 373.791 383.017C407.407 383.017 436.107 384.484 459.836 387.023C468.141 387.926 474.977 393.795 477.124 401.864L482.435 422.009C484.638 430.304 485.712 438.825 485.712 447.345V501.46L492.378 501.517V443.057C492.322 434.536 491.192 426.015 489.045 417.72Z" fill="#3F7539"/>
</g>
<path fill-rule="evenodd" clip-rule="evenodd" d="M263.826 382.015C281.695 379.97 340.813 377.035 379.271 377.035C412.893 377.035 441.732 378.505 465.557 381.055L465.561 381.055C474.783 382.058 482.459 388.578 484.791 397.568C484.791 397.57 484.792 397.572 484.792 397.574L490.101 417.71L490.103 417.72C492.294 426.183 493.454 434.901 493.283 443.643V502.081C493.283 502.683 493.041 503.261 492.613 503.685C492.184 504.109 491.603 504.344 491 504.338L457.497 503.999C456.844 503.993 456.226 503.704 455.801 503.208C455.377 502.712 455.189 502.057 455.284 501.411C455.494 499.998 455.599 498.585 455.599 497.115C455.599 480.925 442.486 467.829 426.277 467.829C410.067 467.829 396.955 480.925 396.955 497.115C396.955 498.347 397.058 499.601 397.218 500.83C397.303 501.478 397.102 502.132 396.667 502.621C396.231 503.11 395.605 503.387 394.95 503.379L311.899 502.363C311.258 502.355 310.651 502.076 310.229 501.595C309.806 501.115 309.607 500.477 309.682 499.842C309.784 498.977 309.836 498.05 309.836 497.115C309.836 480.925 296.724 467.829 280.514 467.829C264.305 467.829 251.192 480.925 251.192 497.115C251.192 497.811 251.242 498.521 251.299 499.324C251.345 499.957 251.122 500.579 250.685 501.039C250.248 501.499 249.637 501.754 249.002 501.742L237.082 501.516C235.847 501.493 234.86 500.484 234.865 499.25L235.091 443.16C235.091 443.1 235.093 443.04 235.098 442.98C235.97 432.652 239.04 422.673 244.076 413.621L254.708 388.788L254.712 388.777C256.323 385.07 259.77 382.445 263.826 382.015ZM379.271 381.55C340.9 381.55 281.954 384.483 264.331 386.501L264.31 386.503C261.932 386.753 259.849 388.3 258.861 390.569C258.86 390.57 258.859 390.572 258.858 390.574L248.185 415.504C248.154 415.577 248.12 415.647 248.081 415.716C243.335 424.216 240.44 433.581 239.61 443.27L239.393 497.045L246.673 497.183C246.672 497.16 246.672 497.138 246.672 497.115C246.672 478.432 261.808 463.314 280.514 463.314C299.22 463.314 314.356 478.432 314.356 497.115C314.356 497.369 314.353 497.624 314.346 497.878L392.488 498.834C392.454 498.267 392.435 497.693 392.435 497.115C392.435 478.432 407.571 463.314 426.277 463.314C444.983 463.314 460.119 478.432 460.119 497.115C460.119 497.924 460.091 498.721 460.035 499.51L488.763 499.801V443.621C488.763 443.606 488.763 443.591 488.763 443.576C488.928 435.285 487.829 426.972 485.728 418.854C485.728 418.852 485.728 418.851 485.727 418.849L480.419 398.714L480.417 398.705C478.566 391.56 472.459 386.347 465.074 385.543C441.441 383.014 412.767 381.55 379.271 381.55Z" fill="#355B3E"/>
<path d="M426.39 523.016C412.096 523.016 400.458 511.392 400.458 497.115C400.458 482.839 412.096 471.214 426.39 471.214C440.684 471.214 452.322 482.839 452.322 497.115C452.322 511.392 440.684 523.016 426.39 523.016Z" fill="#65CDD5"/>
<path fill-rule="evenodd" clip-rule="evenodd" d="M426.39 473.472C413.344 473.472 402.718 484.085 402.718 497.115C402.718 510.145 413.344 520.759 426.39 520.759C439.436 520.759 450.062 510.145 450.062 497.115C450.062 484.085 439.436 473.472 426.39 473.472ZM398.198 497.115C398.198 481.592 410.848 468.957 426.39 468.957C441.932 468.957 454.582 481.592 454.582 497.115C454.582 512.638 441.932 525.273 426.39 525.273C410.848 525.273 398.198 512.638 398.198 497.115Z" fill="#355B3E"/>
<path d="M426.39 510.658C418.932 510.658 412.831 504.564 412.831 497.115C412.831 489.667 418.932 483.572 426.39 483.572C433.848 483.572 439.949 489.667 439.949 497.115C439.949 504.564 433.848 510.658 426.39 510.658Z" fill="#FDC858"/>
<path fill-rule="evenodd" clip-rule="evenodd" d="M426.39 485.829C420.18 485.829 415.09 490.913 415.09 497.115C415.09 503.317 420.18 508.401 426.39 508.401C432.599 508.401 437.689 503.317 437.689 497.115C437.689 490.913 432.599 485.829 426.39 485.829ZM410.571 497.115C410.571 488.42 417.684 481.315 426.39 481.315C435.095 481.315 442.209 488.42 442.209 497.115C442.209 505.81 435.095 512.915 426.39 512.915C417.684 512.915 410.571 505.81 410.571 497.115Z" fill="#355B3E"/>
<path d="M426.39 501.573C423.904 501.573 421.927 499.542 421.927 497.115C421.927 494.632 423.96 492.657 426.39 492.657C428.876 492.657 430.853 494.689 430.853 497.115C430.853 499.542 428.876 501.573 426.39 501.573Z" fill="#FDC858"/>
<path fill-rule="evenodd" clip-rule="evenodd" d="M426.39 494.914C425.19 494.914 424.187 495.897 424.187 497.115C424.187 498.314 425.171 499.316 426.39 499.316C427.609 499.316 428.593 498.314 428.593 497.115C428.593 495.917 427.609 494.914 426.39 494.914ZM419.667 497.115C419.667 493.367 422.731 490.4 426.39 490.4C430.142 490.4 433.113 493.461 433.113 497.115C433.113 500.77 430.142 503.83 426.39 503.83C422.637 503.83 419.667 500.77 419.667 497.115Z" fill="#355B3E"/>
<path d="M237.124 504.282H230.966C228.424 504.282 226.39 502.25 226.39 499.711V481.484C226.39 478.945 228.424 476.914 230.966 476.914H237.124V504.282Z" fill="white"/>
<path fill-rule="evenodd" clip-rule="evenodd" d="M230.966 479.171C229.672 479.171 228.65 480.192 228.65 481.484V499.711C228.65 501.004 229.672 502.024 230.966 502.024H234.864V479.171H230.966ZM224.13 481.484C224.13 477.699 227.176 474.657 230.966 474.657H237.124C238.372 474.657 239.384 475.667 239.384 476.914V504.282C239.384 505.528 238.372 506.539 237.124 506.539H230.966C227.176 506.539 224.13 503.497 224.13 499.711V481.484Z" fill="#355B3E"/>
<path d="M238.028 469.578H235.768C234.073 469.578 232.718 468.224 232.718 466.531V452.537C232.718 450.844 234.073 449.49 235.768 449.49H238.028C239.723 449.49 241.079 450.844 241.079 452.537V466.531C241.079 468.224 239.723 469.578 238.028 469.578Z" fill="white"/>
<path fill-rule="evenodd" clip-rule="evenodd" d="M235.768 451.747C235.321 451.747 234.977 452.09 234.977 452.537V466.531C234.977 466.977 235.321 467.321 235.768 467.321H238.028C238.475 467.321 238.819 466.977 238.819 466.531V452.537C238.819 452.09 238.475 451.747 238.028 451.747H235.768ZM230.458 452.537C230.458 449.597 232.825 447.232 235.768 447.232H238.028C240.971 447.232 243.339 449.597 243.339 452.537V466.531C243.339 469.47 240.971 471.835 238.028 471.835H235.768C232.825 471.835 230.458 469.47 230.458 466.531V452.537Z" fill="#355B3E"/>
<path d="M495.486 508.627H471.192C468.367 508.627 466.107 506.369 466.107 503.548V499.598C466.107 496.777 468.367 494.519 471.192 494.519H495.486C498.311 494.519 500.571 496.777 500.571 499.598V503.548C500.571 506.313 498.254 508.627 495.486 508.627Z" fill="white"/>
<path d="M471.531 503.153C471.531 501.742 472.717 500.557 474.13 500.557H500.514V499.598C500.514 496.777 498.254 494.519 495.429 494.519H471.136C468.311 494.519 466.051 496.777 466.051 499.598V503.548C466.051 506.369 468.311 508.627 471.136 508.627H471.531V503.153Z" fill="#D8D8D8"/>
<path fill-rule="evenodd" clip-rule="evenodd" d="M471.192 496.777C469.615 496.777 468.367 498.023 468.367 499.598V503.548C468.367 505.123 469.615 506.369 471.192 506.369H495.486C497.006 506.369 498.311 505.066 498.311 503.548V499.598C498.311 498.023 497.063 496.777 495.486 496.777H471.192ZM463.847 499.598C463.847 495.53 467.119 492.262 471.192 492.262H495.486C499.559 492.262 502.83 495.53 502.83 499.598V503.548C502.83 507.56 499.502 510.884 495.486 510.884H471.192C467.119 510.884 463.847 507.616 463.847 503.548V499.598Z" fill="#355B3E"/>
<path d="M454.356 431.376H428.198C425.203 431.376 422.774 428.95 422.774 425.959V399.607C422.774 396.616 425.203 394.19 428.198 394.19H444.073C450.345 394.19 455.655 398.76 456.616 404.967L459.667 425.112C460.232 428.442 457.689 431.376 454.356 431.376Z" fill="#FDC858"/>
<path opacity="0.56" d="M433.847 406.096C433.847 403.105 436.277 400.679 439.271 400.679H455.147C452.943 396.785 448.763 394.246 444.073 394.246H428.198C425.203 394.246 422.774 396.672 422.774 399.663V426.015C422.774 429.006 425.203 431.432 428.198 431.432H433.847V406.096Z" fill="#FDC858"/>
<path fill-rule="evenodd" clip-rule="evenodd" d="M428.198 396.447C426.452 396.447 425.034 397.863 425.034 399.607V425.959C425.034 427.703 426.452 429.119 428.198 429.119H454.356C456.312 429.119 457.766 427.42 457.439 425.49C457.436 425.476 457.434 425.463 457.432 425.45L454.382 405.312C454.382 405.311 454.382 405.31 454.382 405.309C453.589 400.196 449.221 396.447 444.073 396.447H428.198ZM420.514 399.607C420.514 395.369 423.955 391.932 428.198 391.932H444.073C451.467 391.932 457.72 397.323 458.849 404.623L458.85 404.63L461.898 424.757C462.686 429.476 459.059 433.633 454.356 433.633H428.198C423.955 433.633 420.514 430.196 420.514 425.959V399.607Z" fill="#355B3E"/>
<path d="M405.373 430.812H347.633C344.638 430.812 342.209 428.385 342.209 425.395V399.042C342.209 396.052 344.638 393.625 347.633 393.625H405.373C408.367 393.625 410.797 396.052 410.797 399.042V425.395C410.74 428.385 408.367 430.812 405.373 430.812Z" fill="#FDC858"/>
<path opacity="0.56" d="M352.661 404.855C352.661 401.864 355.09 399.437 358.085 399.437H410.74V399.042C410.74 396.052 408.311 393.625 405.316 393.625H347.633C344.638 393.625 342.209 396.052 342.209 399.042V425.395C342.209 428.385 344.638 430.812 347.633 430.812H352.717V404.855H352.661Z" fill="#FDC858"/>
<path fill-rule="evenodd" clip-rule="evenodd" d="M347.633 395.882C345.887 395.882 344.469 397.298 344.469 399.042V425.395C344.469 427.139 345.887 428.555 347.633 428.555H405.373C407.075 428.555 408.493 427.178 408.537 425.371V399.042C408.537 397.298 407.119 395.882 405.373 395.882H347.633ZM339.949 399.042C339.949 394.805 343.39 391.368 347.633 391.368H405.373C409.615 391.368 413.057 394.805 413.057 399.042V425.395C413.057 425.409 413.056 425.423 413.056 425.437C412.977 429.602 409.653 433.069 405.373 433.069H347.633C343.39 433.069 339.949 429.632 339.949 425.395V399.042Z" fill="#355B3E"/>
<path d="M315.938 431.376H261.531C258.48 431.376 256.277 427.99 257.124 424.548L263.396 398.196C263.961 395.882 265.768 394.246 267.802 394.246H315.938C318.48 394.246 320.514 396.672 320.514 399.663V426.015C320.571 428.95 318.48 431.376 315.938 431.376Z" fill="#FDC858"/>
<path opacity="0.56" d="M267.294 430.078L273.565 403.726C274.13 401.412 275.938 399.776 277.972 399.776H320.514V399.607C320.514 396.616 318.48 394.19 315.938 394.19H267.802C265.768 394.19 263.96 395.826 263.395 398.14L257.124 424.492C256.333 427.934 258.48 431.32 261.531 431.32H267.124C267.181 430.925 267.237 430.53 267.294 430.078Z" fill="#FDC858"/>
<path fill-rule="evenodd" clip-rule="evenodd" d="M265.592 398.725L259.323 425.07L259.319 425.087C258.712 427.553 260.375 429.119 261.531 429.119H315.938C316.931 429.119 318.293 428.033 318.255 426.059C318.254 426.044 318.254 426.03 318.254 426.015V399.663C318.254 397.539 316.883 396.503 315.938 396.503H267.802C267.057 396.503 265.975 397.167 265.592 398.725ZM261.2 397.661C261.948 394.596 264.481 391.989 267.802 391.989H315.938C320.077 391.989 322.774 395.806 322.774 399.663V425.995C322.837 429.881 320.021 433.633 315.938 433.633H261.531C256.589 433.633 253.846 428.435 254.927 424.018L261.197 397.674L261.2 397.661Z" fill="#355B3E"/>
<path opacity="0.48" fill-rule="evenodd" clip-rule="evenodd" d="M320.966 381.945C320.966 381.633 321.219 381.38 321.531 381.38C328.284 381.38 333.734 386.824 333.734 393.569V500.332C333.734 500.643 333.481 500.896 333.169 500.896C332.857 500.896 332.604 500.643 332.604 500.332V393.569C332.604 387.448 327.66 382.509 321.531 382.509C321.219 382.509 320.966 382.256 320.966 381.945Z" fill="#355B3E"/>
<path fill-rule="evenodd" clip-rule="evenodd" d="M304.243 444.919C304.243 443.672 305.255 442.662 306.503 442.662H323.452C324.7 442.662 325.712 443.672 325.712 444.919C325.712 446.165 324.7 447.176 323.452 447.176H306.503C305.255 447.176 304.243 446.165 304.243 444.919Z" fill="#355B3E"/>
<path fill-rule="evenodd" clip-rule="evenodd" d="M392.209 443.621C392.209 442.374 393.221 441.364 394.469 441.364H408.932C410.18 441.364 411.192 442.374 411.192 443.621C411.192 444.868 410.18 445.878 408.932 445.878H394.469C393.221 445.878 392.209 444.868 392.209 443.621Z" fill="#355B3E"/>
<path d="M492.661 482.839H490.458V428.95H492.661C496.39 428.95 499.441 431.997 499.441 435.721V476.067C499.441 479.792 496.39 482.839 492.661 482.839Z" fill="#D8D8D8"/>
<path fill-rule="evenodd" clip-rule="evenodd" d="M488.198 428.95C488.198 427.703 489.21 426.692 490.458 426.692H492.661C497.638 426.692 501.701 430.75 501.701 435.721V476.067C501.701 481.038 497.638 485.096 492.661 485.096H490.458C489.21 485.096 488.198 484.085 488.198 482.839V428.95ZM492.718 431.207V480.581C495.173 480.551 497.181 478.526 497.181 476.067V435.721C497.181 433.262 495.173 431.238 492.718 431.207Z" fill="#355B3E"/>
<path fill-rule="evenodd" clip-rule="evenodd" d="M463.847 399.889C463.847 398.642 464.859 397.632 466.107 397.632H472.943C474.192 397.632 475.203 398.642 475.203 399.889C475.203 401.135 474.192 402.146 472.943 402.146H466.107C464.859 402.146 463.847 401.135 463.847 399.889Z" fill="#355B3E"/>
<path fill-rule="evenodd" clip-rule="evenodd" d="M466.672 409.595C466.672 408.348 467.684 407.337 468.932 407.337H475.768C477.017 407.337 478.028 408.348 478.028 409.595C478.028 410.841 477.017 411.852 475.768 411.852H468.932C467.684 411.852 466.672 410.841 466.672 409.595Z" fill="#355B3E"/>
<path fill-rule="evenodd" clip-rule="evenodd" d="M469.328 419.244C469.328 417.997 470.339 416.987 471.588 416.987H478.424C479.672 416.987 480.684 417.997 480.684 419.244C480.684 420.49 479.672 421.501 478.424 421.501H471.588C470.339 421.501 469.328 420.49 469.328 419.244Z" fill="#355B3E"/>
<path fill-rule="evenodd" clip-rule="evenodd" d="M470.458 428.95C470.458 427.703 471.469 426.692 472.717 426.692H479.61C480.858 426.692 481.87 427.703 481.87 428.95C481.87 430.196 480.858 431.207 479.61 431.207H472.717C471.469 431.207 470.458 430.196 470.458 428.95Z" fill="#355B3E"/>
<path d="M390.119 503.83H317.068C314.017 503.83 311.588 501.404 311.588 498.357C311.588 495.309 314.017 492.883 317.068 492.883H390.119C393.17 492.883 395.599 495.309 395.599 498.357C395.599 501.347 393.17 503.83 390.119 503.83Z" fill="white"/>
<path d="M390.119 503.83H317.068C314.017 503.83 311.588 501.404 311.588 498.357C311.588 495.309 314.017 492.883 317.068 492.883H390.119C393.17 492.883 395.599 495.309 395.599 498.357C395.599 501.347 393.17 503.83 390.119 503.83Z" fill="white"/>
<path d="M395.599 492.883H311.588V498.357H395.599V492.883Z" fill="#D8D8D8"/>
<path fill-rule="evenodd" clip-rule="evenodd" d="M317.068 495.14C315.265 495.14 313.847 496.556 313.847 498.357C313.847 500.157 315.265 501.573 317.068 501.573H390.119C391.906 501.573 393.339 500.116 393.339 498.357C393.339 496.556 391.921 495.14 390.119 495.14H317.068ZM309.328 498.357C309.328 494.063 312.769 490.626 317.068 490.626H390.119C394.418 490.626 397.859 494.063 397.859 498.357C397.859 502.579 394.433 506.087 390.119 506.087H317.068C312.769 506.087 309.328 502.65 309.328 498.357Z" fill="#355B3E"/>
<path fill-rule="evenodd" clip-rule="evenodd" d="M284.136 405.465C284.578 405.905 284.58 406.619 284.14 407.061L273.066 418.178C272.626 418.62 271.911 418.621 271.468 418.182C271.026 417.742 271.024 417.028 271.464 416.586L282.538 405.469C282.978 405.027 283.693 405.026 284.136 405.465Z" fill="#355B3E"/>
<path fill-rule="evenodd" clip-rule="evenodd" d="M297.355 402.586C297.798 403.026 297.801 403.74 297.361 404.182L282.446 419.192C282.007 419.635 281.291 419.638 280.848 419.198C280.405 418.759 280.403 418.045 280.842 417.602L295.757 402.592C296.197 402.15 296.912 402.147 297.355 402.586Z" fill="#355B3E"/>
<path fill-rule="evenodd" clip-rule="evenodd" d="M370.121 404.107C370.565 404.544 370.571 405.259 370.133 405.703L359.116 416.876C358.678 417.32 357.963 417.325 357.518 416.888C357.073 416.451 357.068 415.736 357.506 415.292L368.523 404.119C368.961 403.675 369.676 403.67 370.121 404.107Z" fill="#355B3E"/>
<path fill-rule="evenodd" clip-rule="evenodd" d="M383.4 401.289C383.843 401.728 383.846 402.442 383.407 402.885L368.491 417.895C368.052 418.337 367.336 418.34 366.893 417.901C366.45 417.462 366.448 416.747 366.887 416.305L381.803 401.295C382.242 400.852 382.958 400.85 383.4 401.289Z" fill="#355B3E"/>
<path fill-rule="evenodd" clip-rule="evenodd" d="M439.839 407.155C440.283 407.593 440.288 408.308 439.849 408.751L430.753 417.949C430.315 418.393 429.599 418.397 429.155 417.959C428.711 417.521 428.707 416.806 429.145 416.363L438.241 407.165C438.68 406.722 439.395 406.717 439.839 407.155Z" fill="#355B3E"/>
<path fill-rule="evenodd" clip-rule="evenodd" d="M450.743 404.785C451.187 405.222 451.192 405.937 450.754 406.381L438.494 418.795C438.055 419.239 437.34 419.244 436.896 418.806C436.451 418.368 436.447 417.654 436.885 417.21L449.145 404.796C449.583 404.352 450.298 404.347 450.743 404.785Z" fill="#355B3E"/>
<path d="M522.83 446.95L569.497 336.576C570.514 334.206 573.904 334.206 574.921 336.576L621.588 446.95C627.181 460.155 615.26 473.979 598.311 473.979H546.107C529.158 473.979 517.237 460.155 522.83 446.95Z" fill="#FDC858"/>
<path d="M522.83 446.95L569.497 336.576C570.514 334.206 573.904 334.206 574.921 336.576L621.588 446.95C627.181 460.155 615.26 473.979 598.311 473.979H546.107C529.158 473.979 517.237 460.155 522.83 446.95Z" fill="#FDC858"/>
<path opacity="0.56" d="M545.655 452.142L578.932 346L574.978 336.576C573.961 334.206 570.571 334.206 569.554 336.576L522.887 446.95C517.294 460.155 529.215 473.979 546.164 473.979H550.119C545.147 469.804 543.226 462.863 545.655 452.142Z" fill="#FDC858"/>
<path fill-rule="evenodd" clip-rule="evenodd" d="M572.209 354.634C573.457 354.634 574.469 355.644 574.469 356.891V523.016C574.469 524.263 573.457 525.273 572.209 525.273C570.961 525.273 569.949 524.263 569.949 523.016V356.891C569.949 355.644 570.961 354.634 572.209 354.634Z" fill="#355B3E"/>
<path fill-rule="evenodd" clip-rule="evenodd" d="M587.291 378.469C588.152 379.371 588.118 380.8 587.215 381.66L573.769 394.469C572.894 395.302 571.519 395.301 570.646 394.466L557.256 381.657C556.355 380.794 556.324 379.366 557.187 378.465C558.05 377.565 559.481 377.534 560.382 378.397L572.212 389.714L584.096 378.393C584.999 377.533 586.429 377.567 587.291 378.469Z" fill="#355B3E"/>
<path fill-rule="evenodd" clip-rule="evenodd" d="M554.588 402.842C555.451 401.942 556.882 401.911 557.783 402.773L572.209 416.57L586.635 402.773C587.536 401.911 588.967 401.942 589.83 402.842C590.693 403.742 590.662 405.171 589.761 406.033L573.772 421.326C572.898 422.161 571.52 422.161 570.646 421.326L554.657 406.033C553.756 405.171 553.725 403.742 554.588 402.842Z" fill="#355B3E"/>
<path fill-rule="evenodd" clip-rule="evenodd" d="M543.773 430.762C544.549 429.786 545.971 429.623 546.948 430.399L572.209 450.444L597.47 430.399C598.447 429.623 599.869 429.786 600.645 430.762C601.422 431.738 601.259 433.158 600.282 433.933L573.615 455.094C572.792 455.747 571.626 455.747 570.803 455.094L544.137 433.933C543.159 433.158 542.997 431.738 543.773 430.762Z" fill="#355B3E"/>
<path fill-rule="evenodd" clip-rule="evenodd" d="M407.278 189.056C408.16 188.175 409.591 188.175 410.474 189.056L415.655 194.231L420.837 189.056C421.719 188.175 423.15 188.175 424.033 189.056C424.915 189.938 424.915 191.367 424.033 192.248L417.253 199.02C416.371 199.901 414.94 199.901 414.057 199.02L407.278 192.248C406.395 191.367 406.395 189.938 407.278 189.056Z" fill="#007549"/>
<path fill-rule="evenodd" clip-rule="evenodd" d="M457.667 197.866C458.545 196.98 459.976 196.975 460.862 197.852L466.101 203.041L471.289 197.859C472.171 196.977 473.602 196.977 474.485 197.859C475.367 198.74 475.367 200.17 474.485 201.051L467.705 207.822C466.825 208.701 465.4 208.704 464.516 207.829L457.68 201.058C456.794 200.18 456.788 198.751 457.667 197.866Z" fill="#007549"/>
<path fill-rule="evenodd" clip-rule="evenodd" d="M565.131 234.255C566.013 233.374 567.444 233.374 568.327 234.255L573.515 239.437L578.753 234.249C579.64 233.371 581.07 233.377 581.949 234.262C582.828 235.147 582.822 236.576 581.936 237.454L575.1 244.225C574.216 245.101 572.791 245.098 571.911 244.219L565.131 237.447C564.248 236.566 564.248 235.137 565.131 234.255Z" fill="#007549"/>
<path fill-rule="evenodd" clip-rule="evenodd" d="M355.203 523.016C355.203 521.769 356.215 520.759 357.463 520.759H514.525C515.773 520.759 516.785 521.769 516.785 523.016C516.785 524.262 515.773 525.273 514.525 525.273H357.463C356.215 525.273 355.203 524.262 355.203 523.016Z" fill="#355B3E"/>
<path fill-rule="evenodd" clip-rule="evenodd" d="M338.254 523.016C338.254 521.769 339.266 520.759 340.514 520.759H359.554C360.802 520.759 361.813 521.769 361.813 523.016C361.813 524.262 360.802 525.273 359.554 525.273H340.514C339.266 525.273 338.254 524.262 338.254 523.016Z" fill="#355B3E"/>
</g>
<defs>
<clipPath id="clip0_1_100">
<rect width="500" height="337.442" fill="white" transform="translate(123 188)"/>
</clipPath>
</defs>
</svg>
